<?xml version="1.0" encoding="UTF-8"?>
<!DOCTYPE svg PUBLIC "-//W3C//DTD SVG 1.1//EN" "http://www.w3.org/Graphics/SVG/1.1/DTD/svg11.dtd">
<svg xmlns="http://www.w3.org/2000/svg" version="1.1" width="1000px" height="1000px" style="shape-rendering:geometricPrecision; text-rendering:geometricPrecision; image-rendering:optimizeQuality; fill-rule:evenodd; clip-rule:evenodd" xmlns:xlink="http://www.w3.org/1999/xlink">
<g><path style="opacity:0.934" fill="#fefffe" d="M 252.5,168.5 C 255.883,165.736 259.55,163.236 263.5,161C 264.833,160.333 264.833,159.667 263.5,159C 266.341,157.938 269.008,156.604 271.5,155C 272.833,154.333 272.833,153.667 271.5,153C 273.134,152.506 274.801,152.34 276.5,152.5C 276.5,151.5 276.5,150.5 276.5,149.5C 279.644,148.828 282.644,147.828 285.5,146.5C 285.5,145.5 285.5,144.5 285.5,143.5C 287.199,143.66 288.866,143.494 290.5,143C 293.236,139.958 296.569,138.125 300.5,137.5C 300.5,136.5 300.5,135.5 300.5,134.5C 302.5,134.5 304.5,134.5 306.5,134.5C 306.5,133.5 306.5,132.5 306.5,131.5C 308.199,131.66 309.866,131.494 311.5,131C 315.225,128.033 319.225,125.533 323.5,123.5C 325.423,122.692 327.423,122.192 329.5,122C 336.435,118.102 343.435,114.602 350.5,111.5C 352.766,110.686 355.1,110.186 357.5,110C 358.167,109.333 358.833,108.667 359.5,108C 368.748,105.76 377.748,102.927 386.5,99.5C 393.676,97.2851 401.009,95.6184 408.5,94.5C 409.966,93.8645 411.3,93.0312 412.5,92C 417.798,92.086 422.798,91.086 427.5,89C 434.5,88.6667 441.5,88.3333 448.5,88C 448.957,87.586 449.291,87.086 449.5,86.5C 478.159,85.5002 506.826,85.1668 535.5,85.5C 535.5,86.5 535.5,87.5 535.5,88.5C 543.507,88.3336 551.507,88.5003 559.5,89C 559.957,89.414 560.291,89.914 560.5,90.5C 565.132,91.3283 569.798,91.8283 574.5,92C 576.833,93 579.167,94 581.5,95C 588.799,96.2604 596.132,97.5937 603.5,99C 604.328,99.9147 605.328,100.581 606.5,101C 618.444,103.567 630.111,106.901 641.5,111C 644.574,112.563 647.574,114.23 650.5,116C 655.209,116.581 659.543,117.914 663.5,120C 672.349,124.422 681.016,129.088 689.5,134C 691.134,134.494 692.801,134.66 694.5,134.5C 694.5,135.5 694.5,136.5 694.5,137.5C 696.288,137.215 697.955,137.548 699.5,138.5C 701.638,139.744 703.638,141.244 705.5,143C 706.793,143.49 708.127,143.657 709.5,143.5C 709.5,144.5 709.5,145.5 709.5,146.5C 711.167,146.5 712.833,146.5 714.5,146.5C 714.5,147.5 714.5,148.5 714.5,149.5C 715.833,149.5 717.167,149.5 718.5,149.5C 718.5,150.5 718.5,151.5 718.5,152.5C 720.167,152.5 721.833,152.5 723.5,152.5C 723.5,153.5 723.5,154.5 723.5,155.5C 724.833,155.5 726.167,155.5 727.5,155.5C 727.5,156.5 727.5,157.5 727.5,158.5C 728.873,158.343 730.207,158.51 731.5,159C 734.317,161.317 736.984,163.817 739.5,166.5C 740.689,167.429 742.022,167.762 743.5,167.5C 743.5,168.5 743.5,169.5 743.5,170.5C 744.552,170.351 745.552,170.517 746.5,171C 751.593,177.103 757.593,181.936 764.5,185.5C 764.281,186.675 764.614,187.675 765.5,188.5C 766.931,188.977 768.264,189.643 769.5,190.5C 774.294,195.827 779.461,200.827 785,205.5C 787.686,210.652 790.853,215.318 794.5,219.5C 795.5,219.5 796.5,219.5 797.5,219.5C 811.285,237.15 824.618,255.317 837.5,274C 836.549,274.718 836.383,275.551 837,276.5C 840,280.5 843,284.5 846,288.5C 846.333,289.833 846.667,291.167 847,292.5C 847.667,293.833 848.333,293.833 849,292.5C 849.495,294.473 849.662,296.473 849.5,298.5C 850.5,298.5 851.5,298.5 852.5,298.5C 852.5,300.5 852.5,302.5 852.5,304.5C 853.5,304.5 854.5,304.5 855.5,304.5C 856.76,308.359 857.76,312.359 858.5,316.5C 859.5,316.5 860.5,316.5 861.5,316.5C 861.5,318.5 861.5,320.5 861.5,322.5C 862.5,322.5 863.5,322.5 864.5,322.5C 864.5,324.833 864.5,327.167 864.5,329.5C 865.5,329.5 866.5,329.5 867.5,329.5C 868.751,334.03 869.751,338.696 870.5,343.5C 871.5,343.5 872.5,343.5 873.5,343.5C 873.337,345.857 873.503,348.19 874,350.5C 875.796,353.397 877.296,356.397 878.5,359.5C 881.402,368.406 883.902,377.406 886,386.5C 886.414,386.957 886.914,387.291 887.5,387.5C 890.144,400.252 893.144,412.919 896.5,425.5C 897.688,437.227 899.021,448.894 900.5,460.5C 901.472,472.181 901.472,483.848 900.5,495.5C 797.833,495.333 695.166,495.5 592.5,496C 591.837,512.428 591.503,528.928 591.5,545.5C 593.495,595.813 594.495,646.313 594.5,697C 594.333,730.5 594.167,764 594,797.5C 567.908,798.495 541.741,798.828 515.5,798.5C 515.831,685.793 515.498,573.126 514.5,460.5C 515.321,453.215 516.654,446.215 518.5,439.5C 519.5,439.5 520.5,439.5 521.5,439.5C 521.5,437.833 521.5,436.167 521.5,434.5C 522.5,434.5 523.5,434.5 524.5,434.5C 523.923,431.45 525.09,429.45 528,428.5C 528.483,427.552 528.649,426.552 528.5,425.5C 530.167,425.5 531.833,425.5 533.5,425.5C 533.5,424.5 533.5,423.5 533.5,422.5C 534.833,422.5 536.167,422.5 537.5,422.5C 537.5,421.5 537.5,420.5 537.5,419.5C 539.527,419.662 541.527,419.495 543.5,419C 544.833,418.333 544.833,417.667 543.5,417C 547.5,416.667 551.5,416.333 555.5,416C 556.833,415.333 556.833,414.667 555.5,414C 627.5,413.667 699.5,413.333 771.5,413C 772.308,412.692 772.975,412.192 773.5,411.5C 789.397,410.176 805.23,410.176 821,411.5C 821.87,410.892 822.37,410.059 822.5,409C 819.896,404.26 817.73,399.426 816,394.5C 813.603,386.531 811.437,378.531 809.5,370.5C 808.5,370.5 807.5,370.5 806.5,370.5C 806.662,368.473 806.495,366.473 806,364.5C 805.333,363.167 804.667,363.167 804,364.5C 803.667,362.167 803.333,359.833 803,357.5C 802.333,356.167 801.667,356.167 801,357.5C 800.562,353.113 799.228,349.113 797,345.5C 793.161,337.657 788.495,330.324 783,323.5C 782.667,322.167 782.333,320.833 782,319.5C 778.335,314.814 774.668,310.147 771,305.5C 770.51,304.207 770.343,302.873 770.5,301.5C 769.5,301.5 768.5,301.5 767.5,301.5C 766.801,299.005 765.801,296.672 764.5,294.5C 763.5,294.5 762.5,294.5 761.5,294.5C 761.657,293.127 761.49,291.793 761,290.5C 757.566,287.24 754.732,283.574 752.5,279.5C 751.5,279.5 750.5,279.5 749.5,279.5C 749.719,278.325 749.386,277.325 748.5,276.5C 740.833,268.833 733.167,261.167 725.5,253.5C 724.675,252.614 723.675,252.281 722.5,252.5C 722.5,251.5 722.5,250.5 722.5,249.5C 721.5,249.5 720.5,249.5 719.5,249.5C 719.5,248.5 719.5,247.5 719.5,246.5C 714.683,243.207 709.683,240.207 704.5,237.5C 704.5,236.5 704.5,235.5 704.5,234.5C 703.167,234.5 701.833,234.5 700.5,234.5C 700.5,233.5 700.5,232.5 700.5,231.5C 697.644,230.172 694.644,229.172 691.5,228.5C 691.5,227.5 691.5,226.5 691.5,225.5C 690.167,225.5 688.833,225.5 687.5,225.5C 687.5,224.5 687.5,223.5 687.5,222.5C 685.801,222.66 684.134,222.494 682.5,222C 683.833,221.333 683.833,220.667 682.5,220C 679.713,218.227 676.713,217.06 673.5,216.5C 673.5,215.5 673.5,214.5 673.5,213.5C 671.473,213.662 669.473,213.495 667.5,213C 668.833,212.333 668.833,211.667 667.5,211C 665.866,210.506 664.199,210.34 662.5,210.5C 662.5,209.5 662.5,208.5 662.5,207.5C 660.5,207.5 658.5,207.5 656.5,207.5C 656.5,206.5 656.5,205.5 656.5,204.5C 654.5,204.5 652.5,204.5 650.5,204.5C 650.5,203.5 650.5,202.5 650.5,201.5C 648.5,201.5 646.5,201.5 644.5,201.5C 644.5,200.5 644.5,199.5 644.5,198.5C 642.5,198.5 640.5,198.5 638.5,198.5C 638.5,197.5 638.5,196.5 638.5,195.5C 636.167,195.5 633.833,195.5 631.5,195.5C 631.5,194.5 631.5,193.5 631.5,192.5C 629.076,192.808 626.743,192.474 624.5,191.5C 622.988,189.066 620.988,188.399 618.5,189.5C 616.868,188.703 615.368,187.703 614,186.5C 607.874,184.185 601.707,182.019 595.5,180C 583.025,177.414 570.691,174.414 558.5,171C 544.001,168.68 529.334,166.68 514.5,165C 495.5,164.333 476.5,164.333 457.5,165C 445.026,166.665 432.692,168.665 420.5,171C 419.328,171.419 418.328,172.085 417.5,173C 410.651,173.778 403.984,175.112 397.5,177C 389.421,180.583 381.087,183.583 372.5,186C 369.09,188 365.756,190 362.5,192C 361.216,192.684 360.049,192.517 359,191.5C 357.294,192.308 356.461,193.641 356.5,195.5C 353.187,193.805 351.187,194.805 350.5,198.5C 348.5,198.5 346.5,198.5 344.5,198.5C 344.5,199.5 344.5,200.5 344.5,201.5C 342.5,201.5 340.5,201.5 338.5,201.5C 338.5,202.5 338.5,203.5 338.5,204.5C 336.833,204.5 335.167,204.5 333.5,204.5C 333.5,205.5 333.5,206.5 333.5,207.5C 331.5,207.5 329.5,207.5 327.5,207.5C 327.5,208.5 327.5,209.5 327.5,210.5C 326.127,210.343 324.793,210.51 323.5,211C 322.167,211.667 322.167,212.333 323.5,213C 321.527,213.495 319.527,213.662 317.5,213.5C 317.5,214.5 317.5,215.5 317.5,216.5C 316.167,216.5 314.833,216.5 313.5,216.5C 313.5,217.5 313.5,218.5 313.5,219.5C 311.833,219.5 310.167,219.5 308.5,219.5C 308.5,220.5 308.5,221.5 308.5,222.5C 307.167,222.5 305.833,222.5 304.5,222.5C 304.5,223.5 304.5,224.5 304.5,225.5C 301.412,225.639 298.745,226.639 296.5,228.5C 296.5,229.5 296.5,230.5 296.5,231.5C 295.167,231.5 293.833,231.5 292.5,231.5C 292.5,232.5 292.5,233.5 292.5,234.5C 289.412,234.639 286.745,235.639 284.5,237.5C 284.5,238.5 284.5,239.5 284.5,240.5C 281.789,241.695 279.456,243.528 277.5,246C 276.207,246.49 274.873,246.657 273.5,246.5C 273.5,247.5 273.5,248.5 273.5,249.5C 270.167,251.5 266.833,253.5 263.5,255.5C 263.5,256.5 263.5,257.5 263.5,258.5C 262.5,258.5 261.5,258.5 260.5,258.5C 260.5,259.5 260.5,260.5 260.5,261.5C 259.5,261.5 258.5,261.5 257.5,261.5C 257.5,262.5 257.5,263.5 257.5,264.5C 256.5,264.5 255.5,264.5 254.5,264.5C 254.5,265.5 254.5,266.5 254.5,267.5C 253.5,267.5 252.5,267.5 251.5,267.5C 251.5,268.833 251.5,270.167 251.5,271.5C 250.5,271.5 249.5,271.5 248.5,271.5C 248.5,272.5 248.5,273.5 248.5,274.5C 247.5,274.5 246.5,274.5 245.5,274.5C 243.272,280.162 239.606,284.829 234.5,288.5C 233.571,289.689 233.238,291.022 233.5,292.5C 232.5,292.5 231.5,292.5 230.5,292.5C 229.389,295.971 227.389,298.971 224.5,301.5C 218.342,311.366 212.008,321.033 205.5,330.5C 205.709,331.086 206.043,331.586 206.5,332C 205.069,332.465 203.903,333.299 203,334.5C 200.594,340.264 197.594,345.597 194,350.5C 189.788,358.993 185.788,367.66 182,376.5C 180.295,381.733 178.795,387.066 177.5,392.5C 176.914,392.709 176.414,393.043 176,393.5C 173.562,404.3 170.562,414.966 167,425.5C 164.765,436.749 162.765,448.082 161,459.5C 160.333,486.5 160.333,513.5 161,540.5C 163.074,546.95 164.074,553.617 164,560.5C 167.623,572.6 170.623,584.934 173,597.5C 173.414,597.957 173.914,598.291 174.5,598.5C 176.956,609.87 180.456,620.87 185,631.5C 186.667,634.167 188.333,636.833 190,639.5C 190.333,641.167 190.667,642.833 191,644.5C 194.888,650.027 197.888,656.027 200,662.5C 202.787,663.222 203.62,664.722 202.5,667C 203.535,668.274 204.702,669.44 206,670.5C 206.617,671.449 206.451,672.282 205.5,673C 207.661,675.803 209.994,678.47 212.5,681C 212.167,681.333 211.833,681.667 211.5,682C 214.006,684.53 216.339,687.197 218.5,690C 217.359,690.741 217.359,691.575 218.5,692.5C 222.085,697.315 225.918,701.981 230,706.5C 230.49,707.793 230.657,709.127 230.5,710.5C 231.5,710.5 232.5,710.5 233.5,710.5C 233.238,711.978 233.571,713.311 234.5,714.5C 237.991,718.125 241.491,721.791 245,725.5C 245.483,726.448 245.649,727.448 245.5,728.5C 246.5,728.5 247.5,728.5 248.5,728.5C 248.5,729.5 248.5,730.5 248.5,731.5C 249.5,731.5 250.5,731.5 251.5,731.5C 251.5,732.833 251.5,734.167 251.5,735.5C 252.5,735.5 253.5,735.5 254.5,735.5C 254.5,736.5 254.5,737.5 254.5,738.5C 255.5,738.5 256.5,738.5 257.5,738.5C 257.5,739.5 257.5,740.5 257.5,741.5C 258.5,741.5 259.5,741.5 260.5,741.5C 260.5,742.5 260.5,743.5 260.5,744.5C 261.5,744.5 262.5,744.5 263.5,744.5C 263.5,745.5 263.5,746.5 263.5,747.5C 264.5,747.5 265.5,747.5 266.5,747.5C 266.5,748.5 266.5,749.5 266.5,750.5C 268.995,751.199 271.328,752.199 273.5,753.5C 273.5,754.5 273.5,755.5 273.5,756.5C 276.821,757.211 279.488,759.044 281.5,762C 282.448,762.483 283.448,762.649 284.5,762.5C 284.5,763.5 284.5,764.5 284.5,765.5C 288.261,767.393 291.928,769.559 295.5,772C 299.052,776.121 303.386,778.955 308.5,780.5C 308.5,781.5 308.5,782.5 308.5,783.5C 310.167,783.5 311.833,783.5 313.5,783.5C 313.5,784.5 313.5,785.5 313.5,786.5C 316.109,787.686 319.442,788.686 323.5,789.5C 323.5,790.5 323.5,791.5 323.5,792.5C 326.98,793.229 330.314,794.229 333.5,795.5C 333.5,796.5 333.5,797.5 333.5,798.5C 335.5,798.5 337.5,798.5 339.5,798.5C 339.5,799.5 339.5,800.5 339.5,801.5C 341.5,801.5 343.5,801.5 345.5,801.5C 345.5,802.5 345.5,803.5 345.5,804.5C 347.604,804.201 349.604,804.534 351.5,805.5C 353.17,807.613 355.17,808.28 357.5,807.5C 358.386,808.325 358.719,809.325 358.5,810.5C 360.833,811.833 363.167,811.833 365.5,810.5C 365.837,813.833 367.504,814.833 370.5,813.5C 372.305,814.472 373.972,815.639 375.5,817C 381.55,819.001 387.55,821.001 393.5,823C 399.286,825.147 405.286,826.481 411.5,827C 412.328,827.915 413.328,828.581 414.5,829C 424.401,831.191 434.401,833.191 444.5,835C 453.94,835.121 463.273,836.121 472.5,838C 490.5,838.667 508.5,838.667 526.5,838C 534.744,836.305 543.078,835.305 551.5,835C 564.795,831.742 578.128,828.742 591.5,826C 597.5,824 603.5,822 609.5,820C 613.598,818.124 617.598,815.958 621.5,813.5C 624.057,814.82 625.724,813.987 626.5,811C 629.754,812.041 632.087,810.874 633.5,807.5C 636.496,808.833 638.163,807.833 638.5,804.5C 640.5,804.5 642.5,804.5 644.5,804.5C 644.5,803.5 644.5,802.5 644.5,801.5C 646.527,801.662 648.527,801.495 650.5,801C 651.833,800.333 651.833,799.667 650.5,799C 654.253,797.886 657.92,796.719 661.5,795.5C 661.5,794.5 661.5,793.5 661.5,792.5C 663.167,792.5 664.833,792.5 666.5,792.5C 666.5,791.5 666.5,790.5 666.5,789.5C 667.873,789.657 669.207,789.49 670.5,789C 671.833,788.333 671.833,787.667 670.5,787C 672.473,786.505 674.473,786.338 676.5,786.5C 676.5,785.5 676.5,784.5 676.5,783.5C 679.067,782.327 681.733,781.161 684.5,780C 687.708,777.606 690.708,774.939 693.5,772C 694.793,771.51 696.127,771.343 697.5,771.5C 697.5,770.5 697.5,769.5 697.5,768.5C 698.552,768.649 699.552,768.483 700.5,768C 706.706,762.261 713.039,756.761 719.5,751.5C 720.325,750.614 721.325,750.281 722.5,750.5C 722.5,749.5 722.5,748.5 722.5,747.5C 723.5,747.5 724.5,747.5 725.5,747.5C 725.5,746.5 725.5,745.5 725.5,744.5C 726.5,744.5 727.5,744.5 728.5,744.5C 728.5,743.5 728.5,742.5 728.5,741.5C 729.675,741.719 730.675,741.386 731.5,740.5C 733.833,737.5 736.5,734.833 739.5,732.5C 740.386,731.675 740.719,730.675 740.5,729.5C 741.5,729.5 742.5,729.5 743.5,729.5C 743.5,728.5 743.5,727.5 743.5,726.5C 744.5,726.5 745.5,726.5 746.5,726.5C 746.5,725.5 746.5,724.5 746.5,723.5C 747.5,723.5 748.5,723.5 749.5,723.5C 749.281,722.325 749.614,721.325 750.5,720.5C 757.167,713.332 763.667,705.999 770,698.5C 771.105,696.399 772.271,694.399 773.5,692.5C 768.5,686.468 763.166,680.635 757.5,675C 756.5,674.667 755.5,674.333 754.5,674C 755.833,673.333 755.833,672.667 754.5,672C 753.552,671.517 752.552,671.351 751.5,671.5C 750.382,668.072 748.549,665.072 746,662.5C 722.192,638.962 698.359,615.295 674.5,591.5C 673.708,589.535 673.041,587.535 672.5,585.5C 672.709,584.914 673.043,584.414 673.5,584C 775.166,583.5 876.833,583.333 978.5,583.5C 978.5,686.5 978.5,789.5 978.5,892.5C 975.677,891.783 973.01,890.783 970.5,889.5C 970.5,888.5 970.5,887.5 970.5,886.5C 969.5,886.5 968.5,886.5 967.5,886.5C 967.5,885.5 967.5,884.5 967.5,883.5C 966.5,883.5 965.5,883.5 964.5,883.5C 964.5,882.5 964.5,881.5 964.5,880.5C 963.5,880.5 962.5,880.5 961.5,880.5C 961.5,879.5 961.5,878.5 961.5,877.5C 960.5,877.5 959.5,877.5 958.5,877.5C 958.5,876.5 958.5,875.5 958.5,874.5C 957.5,874.5 956.5,874.5 955.5,874.5C 955.5,873.5 955.5,872.5 955.5,871.5C 954.5,871.5 953.5,871.5 952.5,871.5C 952.5,870.5 952.5,869.5 952.5,868.5C 951.5,868.5 950.5,868.5 949.5,868.5C 949.5,867.5 949.5,866.5 949.5,865.5C 948.325,865.719 947.325,865.386 946.5,864.5C 943.012,861.178 939.679,857.678 936.5,854C 935.5,853.667 934.5,853.333 933.5,853C 933.833,852.667 934.167,852.333 934.5,852C 933.377,850.956 932.044,850.29 930.5,850C 931.833,849.333 931.833,848.667 930.5,848C 929.552,847.517 928.552,847.351 927.5,847.5C 927.5,846.5 927.5,845.5 927.5,844.5C 926.5,844.5 925.5,844.5 924.5,844.5C 924.5,843.5 924.5,842.5 924.5,841.5C 923.5,841.5 922.5,841.5 921.5,841.5C 921.5,840.5 921.5,839.5 921.5,838.5C 920.5,838.5 919.5,838.5 918.5,838.5C 918.5,837.5 918.5,836.5 918.5,835.5C 917.5,835.5 916.5,835.5 915.5,835.5C 915.5,834.5 915.5,833.5 915.5,832.5C 914.5,832.5 913.5,832.5 912.5,832.5C 912.5,831.5 912.5,830.5 912.5,829.5C 911.5,829.5 910.5,829.5 909.5,829.5C 909.5,828.5 909.5,827.5 909.5,826.5C 908.5,826.5 907.5,826.5 906.5,826.5C 904.833,822.167 901.833,819.167 897.5,817.5C 897.5,816.5 897.5,815.5 897.5,814.5C 896.5,814.5 895.5,814.5 894.5,814.5C 891.715,809.561 888.048,805.228 883.5,801.5C 881.497,803.133 880.164,805.133 879.5,807.5C 878.5,807.5 877.5,807.5 876.5,807.5C 874.81,812.867 871.643,817.201 867,820.5C 865.562,821.9 864.729,823.567 864.5,825.5C 863.5,825.5 862.5,825.5 861.5,825.5C 861.5,826.833 861.5,828.167 861.5,829.5C 860.5,829.5 859.5,829.5 858.5,829.5C 858.5,830.5 858.5,831.5 858.5,832.5C 857.5,832.5 856.5,832.5 855.5,832.5C 855.657,833.873 855.49,835.207 855,836.5C 844.713,845.778 834.88,855.444 825.5,865.5C 824.614,866.325 824.281,867.325 824.5,868.5C 823.325,868.281 822.325,868.614 821.5,869.5C 817.721,872.902 814.054,876.402 810.5,880C 808.067,881.13 805.734,882.296 803.5,883.5C 803.5,884.5 803.5,885.5 803.5,886.5C 802.5,886.5 801.5,886.5 800.5,886.5C 800.5,887.5 800.5,888.5 800.5,889.5C 796.383,891.407 792.717,894.073 789.5,897.5C 788.311,898.429 786.978,898.762 785.5,898.5C 785.5,899.5 785.5,900.5 785.5,901.5C 782.51,902.622 779.843,904.456 777.5,907C 772.143,909.186 767.81,912.686 764.5,917.5C 763.549,916.674 762.549,916.508 761.5,917C 757.194,921.38 752.528,925.213 747.5,928.5C 745.955,929.452 744.288,929.785 742.5,929.5C 742.5,930.5 742.5,931.5 742.5,932.5C 741.167,932.5 739.833,932.5 738.5,932.5C 738.5,933.5 738.5,934.5 738.5,935.5C 736.833,935.5 735.167,935.5 733.5,935.5C 733.5,936.5 733.5,937.5 733.5,938.5C 731.5,938.5 729.5,938.5 727.5,938.5C 727.5,939.5 727.5,940.5 727.5,941.5C 725.801,941.34 724.134,941.506 722.5,942C 721.167,942.667 721.167,943.333 722.5,944C 720.833,944.333 719.167,944.667 717.5,945C 716.167,945.667 716.167,946.333 717.5,947C 713.696,948.721 709.696,949.888 705.5,950.5C 705.5,951.5 705.5,952.5 705.5,953.5C 703.5,953.5 701.5,953.5 699.5,953.5C 699.5,954.5 699.5,955.5 699.5,956.5C 697.5,956.5 695.5,956.5 693.5,956.5C 693.5,957.5 693.5,958.5 693.5,959.5C 691.473,959.338 689.473,959.505 687.5,960C 682.409,962.396 677.409,964.896 672.5,967.5C 661.731,971.65 650.731,975.65 639.5,979.5C 636.893,980.318 634.226,980.818 631.5,981C 630.833,981.667 630.167,982.333 629.5,983C 611.996,987.457 594.329,991.457 576.5,995C 569.14,995.383 561.807,996.05 554.5,997C 520.833,997.667 487.167,997.667 453.5,997C 439.017,996.003 424.684,994.169 410.5,991.5C 390.261,986.276 369.928,981.443 349.5,977C 348.833,976.333 348.167,975.667 347.5,975C 344.774,974.818 342.107,974.318 339.5,973.5C 331.072,970.303 322.739,966.803 314.5,963C 312.167,962.667 309.833,962.333 307.5,962C 308.833,961.333 308.833,960.667 307.5,960C 302.833,958 298.167,956 293.5,954C 291.527,953.505 289.527,953.338 287.5,953.5C 287.5,952.5 287.5,951.5 287.5,950.5C 285.5,950.5 283.5,950.5 281.5,950.5C 281.5,949.5 281.5,948.5 281.5,947.5C 279.5,947.5 277.5,947.5 275.5,947.5C 275.5,946.5 275.5,945.5 275.5,944.5C 273.5,944.5 271.5,944.5 269.5,944.5C 269.5,943.5 269.5,942.5 269.5,941.5C 265.964,940.154 262.298,939.154 258.5,938.5C 258.5,937.5 258.5,936.5 258.5,935.5C 256.473,935.662 254.473,935.495 252.5,935C 253.833,934.333 253.833,933.667 252.5,933C 251.207,932.51 249.873,932.343 248.5,932.5C 248.5,931.5 248.5,930.5 248.5,929.5C 245.02,928.771 241.686,927.771 238.5,926.5C 238.5,925.5 238.5,924.5 238.5,923.5C 236.799,923.034 235.299,923.034 234,923.5C 233.517,922.552 233.351,921.552 233.5,920.5C 232.127,920.657 230.793,920.49 229.5,920C 227.236,917.947 225.07,915.781 223,913.5C 222.282,914.451 221.449,914.617 220.5,914C 213.34,908.243 206.34,902.243 199.5,896C 196.733,894.839 194.067,893.673 191.5,892.5C 191.5,891.5 191.5,890.5 191.5,889.5C 190.5,889.5 189.5,889.5 188.5,889.5C 188.5,888.5 188.5,887.5 188.5,886.5C 183.553,883.815 178.886,880.648 174.5,877C 165.415,867.248 155.915,857.748 146,848.5C 143.542,845.223 141.375,841.889 139.5,838.5C 138.5,838.5 137.5,838.5 136.5,838.5C 135.801,836.005 134.801,833.672 133.5,831.5C 132.5,831.5 131.5,831.5 130.5,831.5C 127.07,826.742 124.07,821.742 121.5,816.5C 120.5,816.5 119.5,816.5 118.5,816.5C 115.989,812.811 113.989,808.811 112.5,804.5C 111.5,804.5 110.5,804.5 109.5,804.5C 107.595,798.425 104.261,793.258 99.5,789C 99.8333,788.667 100.167,788.333 100.5,788C 95.8028,782.647 91.6362,777.147 88,771.5C 86.2788,768.377 85.1121,765.044 84.5,761.5C 83.5,761.5 82.5,761.5 81.5,761.5C 81.5,759.833 81.5,758.167 81.5,756.5C 80.5,756.5 79.5,756.5 78.5,756.5C 78.5,754.5 78.5,752.5 78.5,750.5C 77.5,750.5 76.5,750.5 75.5,750.5C 75.5,748.833 75.5,747.167 75.5,745.5C 74.5,745.5 73.5,745.5 72.5,745.5C 72.5,743.5 72.5,741.5 72.5,739.5C 71.5,739.5 70.5,739.5 69.5,739.5C 69.5,737.5 69.5,735.5 69.5,733.5C 68.5,733.5 67.5,733.5 66.5,733.5C 65.8581,729.045 64.8581,724.712 63.5,720.5C 62.5,720.5 61.5,720.5 60.5,720.5C 60.5,718.167 60.5,715.833 60.5,713.5C 59.5,713.5 58.5,713.5 57.5,713.5C 57.6621,711.473 57.4955,709.473 57,707.5C 55.1212,701.814 52.6212,696.481 49.5,691.5C 45.369,680.468 41.869,669.135 39,657.5C 38.586,657.043 38.086,656.709 37.5,656.5C 33.0025,640.696 29.0025,624.696 25.5,608.5C 24.6725,604.204 24.1725,599.871 24,595.5C 23.7104,593.956 23.0437,592.623 22,591.5C 19.8964,577.569 18.2298,563.569 17,549.5C 16.3333,512.5 16.3333,475.5 17,438.5C 18.1621,425.697 19.9955,413.031 22.5,400.5C 25.8222,388.151 28.8222,375.818 31.5,363.5C 34.9002,353.935 37.9002,344.269 40.5,334.5C 45.1037,324.254 49.6037,313.921 54,303.5C 54.3333,301.167 54.6667,298.833 55,296.5C 55.6667,297.833 56.3333,297.833 57,296.5C 57.1922,294.423 57.6922,292.423 58.5,290.5C 59.7254,288.042 61.2254,285.708 63,283.5C 63.4955,281.527 63.6621,279.527 63.5,277.5C 64.5,277.5 65.5,277.5 66.5,277.5C 66.5,275.5 66.5,273.5 66.5,271.5C 67.5,271.5 68.5,271.5 69.5,271.5C 70.6586,268.207 71.6586,264.207 72.5,259.5C 73.5,259.5 74.5,259.5 75.5,259.5C 75.5,257.833 75.5,256.167 75.5,254.5C 76.5,254.5 77.5,254.5 78.5,254.5C 78.5,252.833 78.5,251.167 78.5,249.5C 79.5,249.5 80.5,249.5 81.5,249.5C 81.5,247.833 81.5,246.167 81.5,244.5C 82.5,244.5 83.5,244.5 84.5,244.5C 84.2148,242.712 84.5481,241.045 85.5,239.5C 87.9306,236.895 89.7639,233.895 91,230.5C 93.7872,227.632 96.1205,224.298 98,220.5C 101.191,215.446 104.858,210.78 109,206.5C 113.256,199.915 117.423,193.249 121.5,186.5C 122.5,186.5 123.5,186.5 124.5,186.5C 127.793,181.683 130.793,176.683 133.5,171.5C 134.5,171.5 135.5,171.5 136.5,171.5C 136.5,170.5 136.5,169.5 136.5,168.5C 137.5,168.5 138.5,168.5 139.5,168.5C 140.704,166.266 141.87,163.933 143,161.5C 143.333,161.833 143.667,162.167 144,162.5C 145.639,159.121 148.139,156.788 151.5,155.5C 152.704,153.266 153.87,150.933 155,148.5C 159.605,144.14 164.105,139.64 168.5,135C 172.95,131.845 177.283,128.678 181.5,125.5C 181.5,124.5 181.5,123.5 181.5,122.5C 182.552,122.649 183.552,122.483 184.5,122C 186.456,119.528 188.789,117.695 191.5,116.5C 191.5,115.5 191.5,114.5 191.5,113.5C 196.506,110.491 201.506,107.491 206.5,104.5C 206.5,103.5 206.5,102.5 206.5,101.5C 207.552,101.649 208.552,101.483 209.5,101C 214.63,97.4507 219.297,93.4507 223.5,89C 228.063,87.4594 232.063,85.2927 235.5,82.5C 235.354,80.0576 236.187,79.3909 238,80.5C 239.691,77.6411 242.191,76.3077 245.5,76.5C 245.5,75.5 245.5,74.5 245.5,73.5C 246.833,73.5 248.167,73.5 249.5,73.5C 249.5,72.5 249.5,71.5 249.5,70.5C 253.558,69.6861 256.891,68.6861 259.5,67.5C 259.5,66.5 259.5,65.5 259.5,64.5C 261.167,64.5 262.833,64.5 264.5,64.5C 264.5,63.5 264.5,62.5 264.5,61.5C 266.5,61.5 268.5,61.5 270.5,61.5C 270.5,60.5 270.5,59.5 270.5,58.5C 274.298,57.8456 277.964,56.8456 281.5,55.5C 281.5,54.5 281.5,53.5 281.5,52.5C 283.5,52.5 285.5,52.5 287.5,52.5C 287.5,51.5 287.5,50.5 287.5,49.5C 289.5,49.5 291.5,49.5 293.5,49.5C 293.5,48.5 293.5,47.5 293.5,46.5C 295.833,46.5 298.167,46.5 300.5,46.5C 300.5,45.5 300.5,44.5 300.5,43.5C 302.5,43.5 304.5,43.5 306.5,43.5C 306.5,42.5 306.5,41.5 306.5,40.5C 308.857,40.6633 311.19,40.4966 313.5,40C 318.591,37.604 323.591,35.104 328.5,32.5C 336.734,29.5991 345.067,27.0991 353.5,25C 354.167,24.3333 354.833,23.6667 355.5,23C 370.56,18.7467 385.893,14.9134 401.5,11.5C 414.698,8.99561 428.032,7.16228 441.5,6C 475.833,5.33333 510.167,5.33333 544.5,6C 558.983,6.9974 573.316,8.83074 587.5,11.5C 604.351,14.8052 621.017,18.8052 637.5,23.5C 637.709,24.086 638.043,24.586 638.5,25C 650.135,27.869 661.468,31.369 672.5,35.5C 675.28,36.7128 677.946,38.2128 680.5,40C 682.81,40.4966 685.143,40.6633 687.5,40.5C 687.5,41.5 687.5,42.5 687.5,43.5C 691.712,44.8581 696.045,45.8581 700.5,46.5C 700.5,47.5 700.5,48.5 700.5,49.5C 702.857,49.3367 705.19,49.5034 707.5,50C 706.167,50.6667 706.167,51.3333 707.5,52C 709.134,52.4935 710.801,52.6602 712.5,52.5C 712.5,53.5 712.5,54.5 712.5,55.5C 714.5,55.5 716.5,55.5 718.5,55.5C 718.5,56.5 718.5,57.5 718.5,58.5C 720.5,58.5 722.5,58.5 724.5,58.5C 724.5,59.5 724.5,60.5 724.5,61.5C 728.036,62.8456 731.702,63.8456 735.5,64.5C 735.5,65.5 735.5,66.5 735.5,67.5C 736.833,67.5 738.167,67.5 739.5,67.5C 739.5,68.5 739.5,69.5 739.5,70.5C 741.5,70.5 743.5,70.5 745.5,70.5C 745.5,71.5 745.5,72.5 745.5,73.5C 747.199,73.3398 748.866,73.5065 750.5,74C 750.167,74.3333 749.833,74.6667 749.5,75C 752.578,75.9138 754.911,77.7472 756.5,80.5C 757.451,79.6744 758.451,79.5078 759.5,80C 759.167,80.3333 758.833,80.6667 758.5,81C 760.909,82.2007 762.909,83.8674 764.5,86C 765.449,86.6172 766.282,86.4506 767,85.5C 767.483,86.448 767.649,87.448 767.5,88.5C 768.93,88.4208 770.264,88.7542 771.5,89.5C 780.295,96.7438 789.295,103.744 798.5,110.5C 801.614,114.291 805.281,117.291 809.5,119.5C 809.5,120.5 809.5,121.5 809.5,122.5C 810.5,122.5 811.5,122.5 812.5,122.5C 812.5,123.5 812.5,124.5 812.5,125.5C 814.672,126.801 817.005,127.801 819.5,128.5C 819.5,129.5 819.5,130.5 819.5,131.5C 820.5,131.5 821.5,131.5 822.5,131.5C 822.5,132.5 822.5,133.5 822.5,134.5C 823.5,134.5 824.5,134.5 825.5,134.5C 825.5,135.5 825.5,136.5 825.5,137.5C 826.5,137.5 827.5,137.5 828.5,137.5C 828.5,138.5 828.5,139.5 828.5,140.5C 829.5,140.5 830.5,140.5 831.5,140.5C 831.5,141.5 831.5,142.5 831.5,143.5C 832.5,143.5 833.5,143.5 834.5,143.5C 834.5,144.5 834.5,145.5 834.5,146.5C 835.5,146.5 836.5,146.5 837.5,146.5C 843.345,155.191 850.179,163.191 858,170.5C 858.483,171.448 858.649,172.448 858.5,173.5C 859.5,173.5 860.5,173.5 861.5,173.5C 861.238,174.978 861.571,176.311 862.5,177.5C 863.695,179.297 865.362,180.297 867.5,180.5C 868.5,183.167 869.5,185.833 870.5,188.5C 871.5,188.5 872.5,188.5 873.5,188.5C 873.5,189.833 873.5,191.167 873.5,192.5C 874.5,192.5 875.5,192.5 876.5,192.5C 877.673,195.067 878.839,197.733 880,200.5C 884.21,204.02 887.044,208.353 888.5,213.5C 889.5,213.5 890.5,213.5 891.5,213.5C 891.343,214.873 891.51,216.207 892,217.5C 895.739,222.359 899.239,227.359 902.5,232.5C 903.452,234.045 903.785,235.712 903.5,237.5C 904.5,237.5 905.5,237.5 906.5,237.5C 906.343,238.873 906.51,240.207 907,241.5C 911.105,246.6 914.105,252.267 916,258.5C 916.925,259.047 917.758,259.713 918.5,260.5C 923.278,270.742 928.444,280.742 934,290.5C 934.494,292.134 934.66,293.801 934.5,295.5C 935.5,295.5 936.5,295.5 937.5,295.5C 937.192,297.924 937.526,300.257 938.5,302.5C 939.086,302.291 939.586,301.957 940,301.5C 940.587,306.859 941.921,311.859 944,316.5C 944.667,317.833 945.333,317.833 946,316.5C 946.497,319.146 946.664,321.813 946.5,324.5C 947.5,324.5 948.5,324.5 949.5,324.5C 949.5,327.167 949.5,329.833 949.5,332.5C 950.5,332.5 951.5,332.5 952.5,332.5C 952.336,335.187 952.503,337.854 953,340.5C 953.414,340.957 953.914,341.291 954.5,341.5C 955.899,347.243 957.399,352.91 959,358.5C 959.414,358.957 959.914,359.291 960.5,359.5C 961.324,362.785 961.824,366.118 962,369.5C 962.667,370.833 963.333,370.833 964,369.5C 964.333,373.167 964.667,376.833 965,380.5C 965.414,380.957 965.914,381.291 966.5,381.5C 967.325,385.122 967.825,388.789 968,392.5C 968.414,392.957 968.914,393.291 969.5,393.5C 970.327,397.459 970.827,401.459 971,405.5C 971.667,406.167 972.333,406.833 973,407.5C 975.178,420.563 976.845,433.897 978,447.5C 978.5,463.497 978.667,479.497 978.5,495.5C 956.5,495.5 934.5,495.5 912.5,495.5C 912.666,486.827 912.5,478.16 912,469.5C 909.08,448.404 906.246,427.404 903.5,406.5C 902.5,406.5 901.5,406.5 900.5,406.5C 900.5,402.5 900.5,398.5 900.5,394.5C 899.5,394.5 898.5,394.5 897.5,394.5C 897.665,390.818 897.499,387.152 897,383.5C 894.908,380.627 893.908,377.293 894,373.5C 893.333,372.167 892.667,372.167 892,373.5C 891.667,370.5 891.333,367.5 891,364.5C 890.333,363.167 889.667,363.167 889,364.5C 888.667,361.5 888.333,358.5 888,355.5C 887.333,354.167 886.667,354.167 886,355.5C 885.503,352.854 885.336,350.187 885.5,347.5C 884.5,347.5 883.5,347.5 882.5,347.5C 882.5,344.833 882.5,342.167 882.5,339.5C 881.5,339.5 880.5,339.5 879.5,339.5C 879.411,334.507 878.411,329.841 876.5,325.5C 875.5,325.5 874.5,325.5 873.5,325.5C 873.5,323.167 873.5,320.833 873.5,318.5C 872.5,318.5 871.5,318.5 870.5,318.5C 870.5,316.5 870.5,314.5 870.5,312.5C 869.5,312.5 868.5,312.5 867.5,312.5C 867.5,310.5 867.5,308.5 867.5,306.5C 866.5,306.5 865.5,306.5 864.5,306.5C 864.5,304.5 864.5,302.5 864.5,300.5C 863.5,300.5 862.5,300.5 861.5,300.5C 861.5,298.5 861.5,296.5 861.5,294.5C 860.5,294.5 859.5,294.5 858.5,294.5C 858.66,292.801 858.494,291.134 858,289.5C 855.603,285.732 853.103,282.065 850.5,278.5C 849.548,276.955 849.215,275.288 849.5,273.5C 848.5,273.5 847.5,273.5 846.5,273.5C 845.486,270.493 844.486,267.493 843.5,264.5C 842.5,264.5 841.5,264.5 840.5,264.5C 840.504,260.221 838.671,256.887 835,254.5C 833.098,252.116 831.931,249.449 831.5,246.5C 830.5,246.5 829.5,246.5 828.5,246.5C 828.649,245.448 828.483,244.448 828,243.5C 822.037,235.367 815.87,227.367 809.5,219.5C 796.319,206.486 783.319,193.319 770.5,180C 769.552,179.517 768.552,179.351 767.5,179.5C 767.5,178.5 767.5,177.5 767.5,176.5C 766.5,176.5 765.5,176.5 764.5,176.5C 764.5,175.5 764.5,174.5 764.5,173.5C 763.5,173.5 762.5,173.5 761.5,173.5C 761.5,172.5 761.5,171.5 761.5,170.5C 756.005,168.255 751.005,165.255 746.5,161.5C 746.5,160.5 746.5,159.5 746.5,158.5C 741.353,157.044 737.02,154.21 733.5,150C 730.733,148.839 728.067,147.673 725.5,146.5C 725.5,145.5 725.5,144.5 725.5,143.5C 721.569,142.875 718.236,141.042 715.5,138C 713.866,137.506 712.199,137.34 710.5,137.5C 710.5,136.5 710.5,135.5 710.5,134.5C 708.801,134.66 707.134,134.494 705.5,134C 705.833,133.667 706.167,133.333 706.5,133C 704.715,131.837 702.715,131.17 700.5,131C 701.833,130.333 701.833,129.667 700.5,129C 698.866,128.506 697.199,128.34 695.5,128.5C 695.5,127.5 695.5,126.5 695.5,125.5C 693.5,125.5 691.5,125.5 689.5,125.5C 689.5,124.5 689.5,123.5 689.5,122.5C 685.814,120.737 681.814,119.57 677.5,119C 678.833,118.333 678.833,117.667 677.5,117C 675.527,116.505 673.527,116.338 671.5,116.5C 671.5,115.5 671.5,114.5 671.5,113.5C 667.288,112.142 662.955,111.142 658.5,110.5C 658.5,109.5 658.5,108.5 658.5,107.5C 655.833,107.5 653.167,107.5 650.5,107.5C 650.5,106.5 650.5,105.5 650.5,104.5C 648.076,104.808 645.743,104.474 643.5,103.5C 642.009,101.988 640.176,100.988 638,100.5C 636.387,101.622 635.22,101.122 634.5,99C 631.964,98.6608 629.464,98.1608 627,97.5C 623.14,95.5854 619.307,93.7521 615.5,92C 612.5,91.6667 609.5,91.3333 606.5,91C 601.832,89.4022 597.166,87.7355 592.5,86C 583.187,83.8909 573.854,81.8909 564.5,80C 548.911,77.7009 533.244,75.7009 517.5,74C 495.5,73.3333 473.5,73.3333 451.5,74C 438.407,75.7262 425.407,77.7262 412.5,80C 404.425,81.8682 396.425,83.8682 388.5,86C 379.902,89.9459 370.902,92.9459 361.5,95C 357.37,96.3491 353.37,98.5158 349.5,101.5C 346.553,100.145 344.886,101.145 344.5,104.5C 341.641,102.98 339.307,103.647 337.5,106.5C 335.257,107.474 332.924,107.808 330.5,107.5C 330.5,108.5 330.5,109.5 330.5,110.5C 328.5,110.5 326.5,110.5 324.5,110.5C 324.5,111.5 324.5,112.5 324.5,113.5C 322.5,113.5 320.5,113.5 318.5,113.5C 318.5,114.5 318.5,115.5 318.5,116.5C 316.5,116.5 314.5,116.5 312.5,116.5C 312.5,117.5 312.5,118.5 312.5,119.5C 310.833,119.5 309.167,119.5 307.5,119.5C 307.5,120.5 307.5,121.5 307.5,122.5C 305.833,122.5 304.167,122.5 302.5,122.5C 302.5,123.5 302.5,124.5 302.5,125.5C 300.5,125.5 298.5,125.5 296.5,125.5C 296.5,126.5 296.5,127.5 296.5,128.5C 294.833,128.5 293.167,128.5 291.5,128.5C 291.5,129.5 291.5,130.5 291.5,131.5C 288.314,132.771 284.98,133.771 281.5,134.5C 281.5,135.5 281.5,136.5 281.5,137.5C 278.882,139.274 275.882,140.274 272.5,140.5C 272.5,141.5 272.5,142.5 272.5,143.5C 269.933,144.673 267.267,145.839 264.5,147C 259.829,151.968 254.496,155.801 248.5,158.5C 248.5,159.5 248.5,160.5 248.5,161.5C 247.448,161.351 246.448,161.517 245.5,162C 242.294,166.09 238.294,168.924 233.5,170.5C 233.5,171.5 233.5,172.5 233.5,173.5C 231.24,174.139 229.24,175.306 227.5,177C 214.667,190.5 201.5,203.667 188,216.5C 186.372,218.653 185.039,220.987 184,223.5C 176.993,230.499 171.16,238.166 166.5,246.5C 165.5,246.5 164.5,246.5 163.5,246.5C 163.274,249.882 162.274,252.882 160.5,255.5C 159.5,255.5 158.5,255.5 157.5,255.5C 156.172,258.356 155.172,261.356 154.5,264.5C 153.5,264.5 152.5,264.5 151.5,264.5C 151.5,266.167 151.5,267.833 151.5,269.5C 150.5,269.5 149.5,269.5 148.5,269.5C 148.5,270.833 148.5,272.167 148.5,273.5C 147.5,273.5 146.5,273.5 145.5,273.5C 145.785,275.288 145.452,276.955 144.5,278.5C 141.897,282.065 139.397,285.732 137,289.5C 136.506,291.134 136.34,292.801 136.5,294.5C 135.5,294.5 134.5,294.5 133.5,294.5C 133.5,296.5 133.5,298.5 133.5,300.5C 132.5,300.5 131.5,300.5 130.5,300.5C 130.5,302.167 130.5,303.833 130.5,305.5C 129.5,305.5 128.5,305.5 127.5,305.5C 127.5,307.5 127.5,309.5 127.5,311.5C 126.5,311.5 125.5,311.5 124.5,311.5C 124.663,313.857 124.497,316.19 124,318.5C 123.586,318.043 123.086,317.709 122.5,317.5C 121.692,319.423 121.192,321.423 121,323.5C 117.947,325.148 116.947,327.482 118,330.5C 116.213,333.075 114.547,335.741 113,338.5C 111.798,340.553 111.464,342.553 112,344.5C 111,345.5 110,346.5 109,347.5C 107.19,353.266 105.19,358.933 103,364.5C 97.5054,383.011 92.5054,401.677 88,420.5C 85.7907,435.129 83.7907,449.796 82,464.5C 81.3333,487.5 81.3333,510.5 82,533.5C 83.6655,548.991 85.6655,564.325 88,579.5C 91.6763,595.219 95.6763,610.886 100,626.5C 103.685,634.889 106.685,643.556 109,652.5C 111.018,656.898 113.185,661.231 115.5,665.5C 114.617,667.743 115.451,669.41 118,670.5C 118.626,675.781 120.626,680.448 124,684.5C 124.333,686.167 124.667,687.833 125,689.5C 128.667,695.833 132.333,702.167 136,708.5C 136.494,710.134 136.66,711.801 136.5,713.5C 137.5,713.5 138.5,713.5 139.5,713.5C 139.5,715.167 139.5,716.833 139.5,718.5C 140.5,718.5 141.5,718.5 142.5,718.5C 142.5,720.167 142.5,721.833 142.5,723.5C 143.5,723.5 144.5,723.5 145.5,723.5C 145.34,725.199 145.506,726.866 146,728.5C 147.667,730.5 149.333,732.5 151,734.5C 151.49,735.793 151.657,737.127 151.5,738.5C 152.5,738.5 153.5,738.5 154.5,738.5C 155.172,741.644 156.172,744.644 157.5,747.5C 158.5,747.5 159.5,747.5 160.5,747.5C 161.172,750.644 162.172,753.644 163.5,756.5C 164.5,756.5 165.5,756.5 166.5,756.5C 166.351,757.552 166.517,758.552 167,759.5C 176.642,773.071 187.476,785.738 199.5,797.5C 200.246,798.736 200.579,800.07 200.5,801.5C 201.5,801.5 202.5,801.5 203.5,801.5C 203.5,802.5 203.5,803.5 203.5,804.5C 204.5,804.5 205.5,804.5 206.5,804.5C 206.5,805.5 206.5,806.5 206.5,807.5C 207.5,807.5 208.5,807.5 209.5,807.5C 211.167,811.833 214.167,814.833 218.5,816.5C 218.5,817.5 218.5,818.5 218.5,819.5C 219.552,819.351 220.552,819.517 221.5,820C 226.5,825 231.5,830 236.5,835C 237.448,835.483 238.448,835.649 239.5,835.5C 239.5,836.5 239.5,837.5 239.5,838.5C 244.432,839.847 248.432,842.68 251.5,847C 252.448,847.483 253.448,847.649 254.5,847.5C 254.5,848.5 254.5,849.5 254.5,850.5C 257.882,850.726 260.882,851.726 263.5,853.5C 263.5,854.5 263.5,855.5 263.5,856.5C 266.356,857.828 269.356,858.828 272.5,859.5C 272.5,860.5 272.5,861.5 272.5,862.5C 275.356,863.828 278.356,864.828 281.5,865.5C 281.5,866.5 281.5,867.5 281.5,868.5C 283.167,868.5 284.833,868.5 286.5,868.5C 286.5,869.5 286.5,870.5 286.5,871.5C 289.109,872.686 292.442,873.686 296.5,874.5C 296.5,875.5 296.5,876.5 296.5,877.5C 298.5,877.5 300.5,877.5 302.5,877.5C 302.5,878.5 302.5,879.5 302.5,880.5C 304.167,880.5 305.833,880.5 307.5,880.5C 307.5,881.5 307.5,882.5 307.5,883.5C 309.5,883.5 311.5,883.5 313.5,883.5C 313.5,884.5 313.5,885.5 313.5,886.5C 315.5,886.5 317.5,886.5 319.5,886.5C 319.5,887.5 319.5,888.5 319.5,889.5C 321.5,889.5 323.5,889.5 325.5,889.5C 325.5,890.5 325.5,891.5 325.5,892.5C 327.833,892.5 330.167,892.5 332.5,892.5C 332.5,893.5 332.5,894.5 332.5,895.5C 334.833,895.5 337.167,895.5 339.5,895.5C 339.5,896.5 339.5,897.5 339.5,898.5C 341.924,898.192 344.257,898.526 346.5,899.5C 350.79,900.69 354.79,902.69 358.5,905.5C 359.086,905.291 359.586,904.957 360,904.5C 370.288,909.729 381.122,913.229 392.5,915C 397.496,916.605 402.496,918.271 407.5,920C 411.5,920.333 415.5,920.667 419.5,921C 420.328,921.915 421.328,922.581 422.5,923C 438.725,925.334 455.058,927.334 471.5,929C 490.833,929.667 510.167,929.667 529.5,929C 545.619,927.381 561.619,925.381 577.5,923C 589.283,919.454 601.283,916.454 613.5,914C 621.319,910.861 629.152,907.694 637,904.5C 639.737,905.468 641.737,904.468 643,901.5C 645.705,902.483 647.872,901.65 649.5,899C 653.969,898.023 658.302,896.69 662.5,895C 663.833,894.333 663.833,893.667 662.5,893C 664.5,892.667 666.5,892.333 668.5,892C 669.833,891.333 669.833,890.667 668.5,890C 670.5,889.667 672.5,889.333 674.5,889C 675.833,888.333 675.833,887.667 674.5,887C 676.473,886.505 678.473,886.338 680.5,886.5C 680.5,885.5 680.5,884.5 680.5,883.5C 682.5,883.5 684.5,883.5 686.5,883.5C 686.5,882.5 686.5,881.5 686.5,880.5C 688.167,880.5 689.833,880.5 691.5,880.5C 691.5,879.5 691.5,878.5 691.5,877.5C 693.5,877.5 695.5,877.5 697.5,877.5C 697.5,876.5 697.5,875.5 697.5,874.5C 698.873,874.657 700.207,874.49 701.5,874C 702.833,873.333 702.833,872.667 701.5,872C 703.167,871.667 704.833,871.333 706.5,871C 707.833,870.333 707.833,869.667 706.5,869C 709.623,867.279 712.956,866.112 716.5,865.5C 716.5,864.5 716.5,863.5 716.5,862.5C 719.067,861.327 721.733,860.161 724.5,859C 728.02,854.79 732.353,851.956 737.5,850.5C 737.5,849.5 737.5,848.5 737.5,847.5C 741.617,845.593 745.283,842.927 748.5,839.5C 749.689,838.571 751.022,838.238 752.5,838.5C 752.5,837.5 752.5,836.5 752.5,835.5C 753.5,835.5 754.5,835.5 755.5,835.5C 755.5,834.5 755.5,833.5 755.5,832.5C 760.139,829.368 764.806,826.035 769.5,822.5C 770.386,821.675 770.719,820.675 770.5,819.5C 771.5,819.5 772.5,819.5 773.5,819.5C 773.5,818.5 773.5,817.5 773.5,816.5C 776.696,815.071 779.696,813.405 782.5,811.5C 782.5,810.5 782.5,809.5 782.5,808.5C 783.5,808.5 784.5,808.5 785.5,808.5C 785.343,807.127 785.51,805.793 786,804.5C 786.667,805.833 787.333,805.833 788,804.5C 788.483,803.552 788.649,802.552 788.5,801.5C 789.5,801.5 790.5,801.5 791.5,801.5C 791.5,800.5 791.5,799.5 791.5,798.5C 792.5,798.5 793.5,798.5 794.5,798.5C 794.5,797.5 794.5,796.5 794.5,795.5C 795.5,795.5 796.5,795.5 797.5,795.5C 798.668,793.187 800.002,790.854 801.5,788.5C 810.703,779.648 818.703,769.982 825.5,759.5C 826.5,759.5 827.5,759.5 828.5,759.5C 828.8,756.731 829.8,754.231 831.5,752C 829.396,749.648 827.396,747.148 825.5,744.5C 820.995,750.848 816.495,757.181 812,763.5C 809.527,766.395 806.86,769.061 804,771.5C 803.517,772.448 803.351,773.448 803.5,774.5C 802.5,774.5 801.5,774.5 800.5,774.5C 798.571,777.94 796.405,781.274 794,784.5C 783.744,794.585 773.911,804.585 764.5,814.5C 762.42,815.044 760.42,815.878 758.5,817C 754.543,820.991 750.543,824.991 746.5,829C 745.552,829.483 744.552,829.649 743.5,829.5C 743.649,830.552 743.483,831.552 743,832.5C 742.282,831.549 741.449,831.383 740.5,832C 736.076,836.762 731.076,840.762 725.5,844C 723.875,844.853 723.542,845.853 724.5,847C 722.527,847.495 720.527,847.662 718.5,847.5C 718.5,848.5 718.5,849.5 718.5,850.5C 717.448,850.351 716.448,850.517 715.5,851C 714.167,851.667 714.167,852.333 715.5,853C 713.527,853.495 711.527,853.662 709.5,853.5C 709.5,854.5 709.5,855.5 709.5,856.5C 706.882,858.274 703.882,859.274 700.5,859.5C 700.5,860.5 700.5,861.5 700.5,862.5C 699.127,862.343 697.793,862.51 696.5,863C 687.294,868.768 677.96,874.268 668.5,879.5C 651.785,886.294 635.118,893.294 618.5,900.5C 612.901,902.267 607.235,903.767 601.5,905C 596.402,906.73 591.402,908.73 586.5,911C 583.5,911.333 580.5,911.667 577.5,912C 576.833,912.667 576.167,913.333 575.5,914C 564.835,916.319 553.835,917.652 542.5,918C 542.043,918.414 541.709,918.914 541.5,919.5C 514.833,920.833 488.167,920.833 461.5,919.5C 461.291,918.914 460.957,918.414 460.5,918C 447.831,917.731 435.498,916.398 423.5,914C 422.833,913.333 422.167,912.667 421.5,912C 415.38,912.272 409.713,910.939 404.5,908C 398.26,906.242 391.926,904.742 385.5,903.5C 373.976,899.831 362.642,895.831 351.5,891.5C 346.576,888.775 341.576,886.275 336.5,884C 334.527,883.505 332.527,883.338 330.5,883.5C 330.5,882.5 330.5,881.5 330.5,880.5C 328.396,880.799 326.396,880.466 324.5,879.5C 322.042,878.275 319.708,876.775 317.5,875C 315.866,874.506 314.199,874.34 312.5,874.5C 312.5,873.5 312.5,872.5 312.5,871.5C 310.5,871.5 308.5,871.5 306.5,871.5C 306.5,870.5 306.5,869.5 306.5,868.5C 304.712,868.785 303.045,868.452 301.5,867.5C 299.362,866.256 297.362,864.756 295.5,863C 294.207,862.51 292.873,862.343 291.5,862.5C 291.5,861.5 291.5,860.5 291.5,859.5C 287.956,858.888 284.623,857.721 281.5,856C 282.833,855.333 282.833,854.667 281.5,854C 279.866,853.506 278.199,853.34 276.5,853.5C 276.5,852.5 276.5,851.5 276.5,850.5C 275.127,850.657 273.793,850.49 272.5,850C 273.833,849.333 273.833,848.667 272.5,848C 269.733,846.839 267.067,845.673 264.5,844.5C 264.5,843.5 264.5,842.5 264.5,841.5C 262.801,841.66 261.134,841.494 259.5,841C 260.833,840.333 260.833,839.667 259.5,839C 258.5,838.667 257.5,838.333 256.5,838C 254.71,835.509 252.543,833.342 250,831.5C 249.667,831.833 249.333,832.167 249,832.5C 248.517,831.552 248.351,830.552 248.5,829.5C 247.448,829.649 246.448,829.483 245.5,829C 240.745,824.324 235.745,820.157 230.5,816.5C 230.5,815.5 230.5,814.5 230.5,813.5C 229.5,813.5 228.5,813.5 227.5,813.5C 227.5,812.5 227.5,811.5 227.5,810.5C 221.344,806.952 216.01,802.285 211.5,796.5C 210.675,795.614 209.675,795.281 208.5,795.5C 207.071,792.304 205.405,789.304 203.5,786.5C 202.5,786.5 201.5,786.5 200.5,786.5C 200.5,785.5 200.5,784.5 200.5,783.5C 199.5,783.5 198.5,783.5 197.5,783.5C 197.719,782.325 197.386,781.325 196.5,780.5C 189.764,772.054 182.764,763.888 175.5,756C 176.641,755.259 176.641,754.425 175.5,753.5C 174.25,750.951 172.25,749.618 169.5,749.5C 169.5,747.833 169.5,746.167 169.5,744.5C 168.5,744.5 167.5,744.5 166.5,744.5C 164.5,740.167 162.5,735.833 160.5,731.5C 159.5,731.5 158.5,731.5 157.5,731.5C 157.386,727.789 156.386,724.455 154.5,721.5C 153.5,721.5 152.5,721.5 151.5,721.5C 151.5,719.833 151.5,718.167 151.5,716.5C 150.5,716.5 149.5,716.5 148.5,716.5C 148.5,714.5 148.5,712.5 148.5,710.5C 147.5,710.5 146.5,710.5 145.5,710.5C 145.66,708.801 145.494,707.134 145,705.5C 143.244,703.638 141.744,701.638 140.5,699.5C 134.11,686.38 127.943,673.046 122,659.5C 115.33,640.797 109.163,621.797 103.5,602.5C 102.366,600.462 102.366,598.462 103.5,596.5C 100.41,590.214 98.7431,583.548 98.5,576.5C 97.914,576.291 97.414,575.957 97,575.5C 96.8299,569.804 96.3299,564.138 95.5,558.5C 94.914,558.291 94.414,557.957 94,557.5C 93.8319,548.814 93.3319,540.148 92.5,531.5C 91.914,531.291 91.414,530.957 91,530.5C 90.1669,506.16 90.3335,481.826 91.5,457.5C 92.086,457.291 92.586,456.957 93,456.5C 93.2282,443.496 94.5615,430.829 97,418.5C 97.6667,417.833 98.3333,417.167 99,416.5C 99.3333,413.167 99.6667,409.833 100,406.5C 103.999,394.447 107.999,382.447 112,370.5C 111.907,367.044 112.907,364.044 115,361.5C 116.758,356.601 118.258,351.601 119.5,346.5C 122.104,341.591 124.604,336.591 127,331.5C 127.495,329.527 127.662,327.527 127.5,325.5C 128.5,325.5 129.5,325.5 130.5,325.5C 130.5,323.5 130.5,321.5 130.5,319.5C 131.5,319.5 132.5,319.5 133.5,319.5C 133.5,317.5 133.5,315.5 133.5,313.5C 134.5,313.5 135.5,313.5 136.5,313.5C 136.5,311.5 136.5,309.5 136.5,307.5C 137.5,307.5 138.5,307.5 139.5,307.5C 139.5,305.5 139.5,303.5 139.5,301.5C 140.5,301.5 141.5,301.5 142.5,301.5C 143.846,297.964 144.846,294.298 145.5,290.5C 146.5,290.5 147.5,290.5 148.5,290.5C 150.386,287.545 151.386,284.211 151.5,280.5C 152.5,280.5 153.5,280.5 154.5,280.5C 154.5,278.833 154.5,277.167 154.5,275.5C 155.5,275.5 156.5,275.5 157.5,275.5C 157.5,274.167 157.5,272.833 157.5,271.5C 158.5,271.5 159.5,271.5 160.5,271.5C 160.5,269.833 160.5,268.167 160.5,266.5C 161.5,266.5 162.5,266.5 163.5,266.5C 163.5,265.167 163.5,263.833 163.5,262.5C 164.5,262.5 165.5,262.5 166.5,262.5C 167.118,259.602 168.285,256.935 170,254.5C 174.446,248.521 179.28,242.854 184.5,237.5C 187.559,231.666 191.559,226.666 196.5,222.5C 197.386,221.675 197.719,220.675 197.5,219.5C 198.5,219.5 199.5,219.5 200.5,219.5C 200.5,218.5 200.5,217.5 200.5,216.5C 201.5,216.5 202.5,216.5 203.5,216.5C 203.5,215.5 203.5,214.5 203.5,213.5C 204.5,213.5 205.5,213.5 206.5,213.5C 207.167,211.5 207.833,209.5 208.5,207.5C 215.426,202.579 221.759,196.912 227.5,190.5C 228.325,189.614 229.325,189.281 230.5,189.5C 230.5,188.5 230.5,187.5 230.5,186.5C 231.5,186.5 232.5,186.5 233.5,186.5C 233.5,185.5 233.5,184.5 233.5,183.5C 238.009,181.67 241.676,178.67 244.5,174.5C 245.736,173.754 247.07,173.421 248.5,173.5C 248.351,172.448 248.517,171.448 249,170.5C 250.579,171.172 251.746,170.505 252.5,168.5 Z M 815.5,650.5 C 846.927,650.495 878.427,650.495 910,650.5C 909.682,682.088 909.349,713.755 909,745.5C 903.93,738.929 898.097,733.262 891.5,728.5C 891.5,727.5 891.5,726.5 891.5,725.5C 890.5,725.5 889.5,725.5 888.5,725.5C 888.5,724.5 888.5,723.5 888.5,722.5C 887.5,722.5 886.5,722.5 885.5,722.5C 885.5,721.5 885.5,720.5 885.5,719.5C 884.5,719.5 883.5,719.5 882.5,719.5C 882.5,718.5 882.5,717.5 882.5,716.5C 881.5,716.5 880.5,716.5 879.5,716.5C 879.5,715.5 879.5,714.5 879.5,713.5C 878.5,713.5 877.5,713.5 876.5,713.5C 876.5,712.5 876.5,711.5 876.5,710.5C 875.5,710.5 874.5,710.5 873.5,710.5C 873.5,709.5 873.5,708.5 873.5,707.5C 872.5,707.5 871.5,707.5 870.5,707.5C 870.5,706.5 870.5,705.5 870.5,704.5C 869.5,704.5 868.5,704.5 867.5,704.5C 867.5,703.5 867.5,702.5 867.5,701.5C 866.5,701.5 865.5,701.5 864.5,701.5C 864.5,700.5 864.5,699.5 864.5,698.5C 863.5,698.5 862.5,698.5 861.5,698.5C 861.5,697.5 861.5,696.5 861.5,695.5C 860.5,695.5 859.5,695.5 858.5,695.5C 858.5,694.5 858.5,693.5 858.5,692.5C 857.5,692.5 856.5,692.5 855.5,692.5C 855.5,691.5 855.5,690.5 855.5,689.5C 854.5,689.5 853.5,689.5 852.5,689.5C 852.657,688.127 852.49,686.793 852,685.5C 839.991,673.657 827.824,661.991 815.5,650.5 Z"/></g>
<g><path style="opacity:0.004" fill="#fefffe" d="M 228.5,81.5 C 229.833,82.1667 229.833,82.1667 228.5,81.5 Z"/></g>
<g><path style="opacity:0.004" fill="#fefffe" d="M 204.5,99.5 C 205.833,100.167 205.833,100.167 204.5,99.5 Z"/></g>
<g><path style="opacity:0.004" fill="#fefffe" d="M 192.5,108.5 C 193.833,109.167 193.833,109.167 192.5,108.5 Z"/></g>
<g><path style="opacity:0.004" fill="#fefffe" d="M 189.5,111.5 C 190.833,112.167 190.833,112.167 189.5,111.5 Z"/></g>
<g><path style="opacity:0.004" fill="#fefffe" d="M 804.5,111.5 C 805.833,112.167 805.833,112.167 804.5,111.5 Z"/></g>
<g><path style="opacity:0.004" fill="#fefffe" d="M 807.5,114.5 C 808.833,115.167 808.833,115.167 807.5,114.5 Z"/></g>
<g><path style="opacity:0.004" fill="#fefffe" d="M 183.5,117.5 C 184.833,118.167 184.833,118.167 183.5,117.5 Z"/></g>
<g><path style="opacity:0.004" fill="#fefffe" d="M 810.5,117.5 C 811.833,118.167 811.833,118.167 810.5,117.5 Z"/></g>
<g><path style="opacity:0.004" fill="#fefffe" d="M 813.5,120.5 C 814.833,121.167 814.833,121.167 813.5,120.5 Z"/></g>
<g><path style="opacity:0.004" fill="#fefffe" d="M 843.5,151.5 C 844.833,152.167 844.833,152.167 843.5,151.5 Z"/></g>
<g><path style="opacity:0.004" fill="#fefffe" d="M 261.5,153.5 C 262.833,154.167 262.833,154.167 261.5,153.5 Z"/></g>
<g><path style="opacity:0.004" fill="#fefffe" d="M 846.5,154.5 C 847.833,155.167 847.833,155.167 846.5,154.5 Z"/></g>
<g><path style="opacity:0.004" fill="#fefffe" d="M 735.5,156.5 C 736.833,157.167 736.833,157.167 735.5,156.5 Z"/></g>
<g><path style="opacity:0.004" fill="#fefffe" d="M 849.5,156.5 C 850.289,156.783 850.956,157.283 851.5,158C 850.184,158.528 849.517,158.028 849.5,156.5 Z"/></g>
<g><path style="opacity:0.004" fill="#fefffe" d="M 737.5,159.5 C 738.525,159.897 738.692,160.563 738,161.5C 737.536,160.906 737.369,160.239 737.5,159.5 Z"/></g>
<g><path style="opacity:0.004" fill="#fefffe" d="M 852.5,159.5 C 853.289,159.783 853.956,160.283 854.5,161C 853.184,161.528 852.517,161.028 852.5,159.5 Z"/></g>
<g><path style="opacity:0.004" fill="#fefffe" d="M 137.5,162.5 C 138.525,162.897 138.692,163.563 138,164.5C 137.536,163.906 137.369,163.239 137.5,162.5 Z"/></g>
<g><path style="opacity:0.004" fill="#fefffe" d="M 253.5,163.5 C 254.833,164.167 254.833,164.167 253.5,163.5 Z"/></g>
<g><path style="opacity:0.004" fill="#fefffe" d="M 246.5,165.5 C 247.833,166.167 247.833,166.167 246.5,165.5 Z"/></g>
<g><path style="opacity:0.004" fill="#fefffe" d="M 747.5,165.5 C 748.833,166.167 748.833,166.167 747.5,165.5 Z"/></g>
<g><path style="opacity:0.004" fill="#fefffe" d="M 134.5,166.5 C 135.833,167.167 135.833,167.167 134.5,166.5 Z"/></g>
<g><path style="opacity:0.004" fill="#fefffe" d="M 252.5,168.5 C 251.833,167.167 251.833,167.167 252.5,168.5 Z"/></g>
<g><path style="opacity:0.004" fill="#fefffe" d="M 243.5,168.5 C 244.833,169.167 244.833,169.167 243.5,168.5 Z"/></g>
<g><path style="opacity:0.004" fill="#fefffe" d="M 750.5,168.5 C 751.833,169.167 751.833,169.167 750.5,168.5 Z"/></g>
<g><path style="opacity:0.004" fill="#fefffe" d="M 131.5,169.5 C 132.833,170.167 132.833,170.167 131.5,169.5 Z"/></g>
<g><path style="opacity:0.004" fill="#fefffe" d="M 752.5,171.5 C 753.289,171.783 753.956,172.283 754.5,173C 753.184,173.528 752.517,173.028 752.5,171.5 Z"/></g>
<g><path style="opacity:0.004" fill="#fefffe" d="M 128.5,172.5 C 129.833,173.167 129.833,173.167 128.5,172.5 Z"/></g>
<g><path style="opacity:0.004" fill="#fefffe" d="M 759.5,174.5 C 760.833,175.167 760.833,175.167 759.5,174.5 Z"/></g>
<g><path style="opacity:0.004" fill="#fefffe" d="M 864.5,174.5 C 866.337,174.639 866.67,175.306 865.5,176.5C 864.702,176.043 864.369,175.376 864.5,174.5 Z"/></g>
<g><path style="opacity:0.004" fill="#fefffe" d="M 237.5,175.5 C 238.833,176.167 238.833,176.167 237.5,175.5 Z"/></g>
<g><path style="opacity:0.004" fill="#fefffe" d="M 755.5,176.5 C 755.897,175.475 756.563,175.308 757.5,176C 756.906,176.464 756.239,176.631 755.5,176.5 Z"/></g>
<g><path style="opacity:0.004" fill="#fefffe" d="M 231.5,177.5 C 232.833,178.167 232.833,178.167 231.5,177.5 Z"/></g>
<g><path style="opacity:0.004" fill="#fefffe" d="M 234.5,179.5 C 234.897,178.475 235.563,178.308 236.5,179C 235.906,179.464 235.239,179.631 234.5,179.5 Z"/></g>
<g><path style="opacity:0.004" fill="#fefffe" d="M 867.5,179.5 C 867.897,178.475 868.563,178.308 869.5,179C 868.906,179.464 868.239,179.631 867.5,179.5 Z"/></g>
<g><path style="opacity:0.004" fill="#fefffe" d="M 227.5,181.5 C 227.897,180.475 228.563,180.308 229.5,181C 228.906,181.464 228.239,181.631 227.5,181.5 Z"/></g>
<g><path style="opacity:0.004" fill="#fefffe" d="M 765.5,180.5 C 766.833,181.167 766.833,181.167 765.5,180.5 Z"/></g>
<g><path style="opacity:0.004" fill="#fefffe" d="M 231.5,181.5 C 232.833,182.167 232.833,182.167 231.5,181.5 Z"/></g>
<g><path style="opacity:0.004" fill="#fefffe" d="M 224.5,184.5 C 224.897,183.475 225.563,183.308 226.5,184C 225.906,184.464 225.239,184.631 224.5,184.5 Z"/></g>
<g><path style="opacity:0.004" fill="#fefffe" d="M 119.5,184.5 C 120.833,185.167 120.833,185.167 119.5,184.5 Z"/></g>
<g><path style="opacity:0.004" fill="#fefffe" d="M 228.5,184.5 C 229.833,185.167 229.833,185.167 228.5,184.5 Z"/></g>
<g><path style="opacity:0.004" fill="#fefffe" d="M 221.5,187.5 C 221.897,186.475 222.563,186.308 223.5,187C 222.906,187.464 222.239,187.631 221.5,187.5 Z"/></g>
<g><path style="opacity:0.004" fill="#fefffe" d="M 771.5,186.5 C 772.525,186.897 772.692,187.563 772,188.5C 771.536,187.906 771.369,187.239 771.5,186.5 Z"/></g>
<g><path style="opacity:0.004" fill="#fefffe" d="M 116.5,187.5 C 117.833,188.167 117.833,188.167 116.5,187.5 Z"/></g>
<g><path style="opacity:0.004" fill="#fefffe" d="M 774.5,189.5 C 775.525,189.897 775.692,190.563 775,191.5C 774.536,190.906 774.369,190.239 774.5,189.5 Z"/></g>
<g><path style="opacity:0.004" fill="#fefffe" d="M 876.5,191.5 C 876.897,190.475 877.563,190.308 878.5,191C 877.906,191.464 877.239,191.631 876.5,191.5 Z"/></g>
<g><path style="opacity:0.004" fill="#fefffe" d="M 215.5,192.5 C 216.833,193.167 216.833,193.167 215.5,192.5 Z"/></g>
<g><path style="opacity:0.004" fill="#fefffe" d="M 777.5,192.5 C 778.525,192.897 778.692,193.563 778,194.5C 777.536,193.906 777.369,193.239 777.5,192.5 Z"/></g>
<g><path style="opacity:0.004" fill="#fefffe" d="M 212.5,195.5 C 213.833,196.167 213.833,196.167 212.5,195.5 Z"/></g>
<g><path style="opacity:0.004" fill="#fefffe" d="M 780.5,195.5 C 781.525,195.897 781.692,196.563 781,197.5C 780.536,196.906 780.369,196.239 780.5,195.5 Z"/></g>
<g><path style="opacity:0.004" fill="#fefffe" d="M 110.5,196.5 C 111.833,197.167 111.833,197.167 110.5,196.5 Z"/></g>
<g><path style="opacity:0.004" fill="#fefffe" d="M 209.5,198.5 C 210.833,199.167 210.833,199.167 209.5,198.5 Z"/></g>
<g><path style="opacity:0.004" fill="#fefffe" d="M 783.5,198.5 C 784.525,198.897 784.692,199.563 784,200.5C 783.536,199.906 783.369,199.239 783.5,198.5 Z"/></g>
<g><path style="opacity:0.004" fill="#fefffe" d="M 107.5,199.5 C 108.833,200.167 108.833,200.167 107.5,199.5 Z"/></g>
<g><path style="opacity:0.004" fill="#fefffe" d="M 206.5,201.5 C 207.833,202.167 207.833,202.167 206.5,201.5 Z"/></g>
<g><path style="opacity:0.004" fill="#fefffe" d="M 786.5,201.5 C 787.525,201.897 787.692,202.563 787,203.5C 786.536,202.906 786.369,202.239 786.5,201.5 Z"/></g>
<g><path style="opacity:0.004" fill="#fefffe" d="M 886.5,202.5 C 887.833,203.167 887.833,203.167 886.5,202.5 Z"/></g>
<g><path style="opacity:0.004" fill="#fefffe" d="M 203.5,204.5 C 206.001,204.511 206.168,205.178 204,206.5C 203.536,205.906 203.369,205.239 203.5,204.5 Z"/></g>
<g><path style="opacity:0.004" fill="#fefffe" d="M 103.5,205.5 C 104.833,206.167 104.833,206.167 103.5,205.5 Z"/></g>
<g><path style="opacity:0.004" fill="#fefffe" d="M 200.5,207.5 C 201.525,207.897 201.692,208.563 201,209.5C 200.536,208.906 200.369,208.239 200.5,207.5 Z"/></g>
<g><path style="opacity:0.004" fill="#fefffe" d="M 101.5,208.5 C 102.833,209.167 102.833,209.167 101.5,208.5 Z"/></g>
<g><path style="opacity:0.004" fill="#fefffe" d="M 197.5,210.5 C 198.525,210.897 198.692,211.563 198,212.5C 197.536,211.906 197.369,211.239 197.5,210.5 Z"/></g>
<g><path style="opacity:0.004" fill="#fefffe" d="M 201.5,211.5 C 202.833,212.167 202.833,212.167 201.5,211.5 Z"/></g>
<g><path style="opacity:0.004" fill="#fefffe" d="M 892.5,211.5 C 893.833,212.167 893.833,212.167 892.5,211.5 Z"/></g>
<g><path style="opacity:0.004" fill="#fefffe" d="M 194.5,213.5 C 195.525,213.897 195.692,214.563 195,215.5C 194.536,214.906 194.369,214.239 194.5,213.5 Z"/></g>
<g><path style="opacity:0.004" fill="#fefffe" d="M 798.5,214.5 C 799.077,213.227 799.743,213.227 800.5,214.5C 800.03,215.463 799.363,215.463 798.5,214.5 Z"/></g>
<g><path style="opacity:0.004" fill="#fefffe" d="M 198.5,214.5 C 199.833,215.167 199.833,215.167 198.5,214.5 Z"/></g>
<g><path style="opacity:0.004" fill="#fefffe" d="M 191.5,216.5 C 192.525,216.897 192.692,217.563 192,218.5C 191.536,217.906 191.369,217.239 191.5,216.5 Z"/></g>
<g><path style="opacity:0.004" fill="#fefffe" d="M 801.5,217.5 C 802.077,216.227 802.743,216.227 803.5,217.5C 803.03,218.463 802.363,218.463 801.5,217.5 Z"/></g>
<g><path style="opacity:0.004" fill="#fefffe" d="M 95.5,217.5 C 96.8333,218.167 96.8333,218.167 95.5,217.5 Z"/></g>
<g><path style="opacity:0.004" fill="#fefffe" d="M 195.5,217.5 C 196.525,217.897 196.692,218.563 196,219.5C 195.536,218.906 195.369,218.239 195.5,217.5 Z"/></g>
<g><path style="opacity:0.004" fill="#fefffe" d="M 798.5,217.5 C 799.833,218.167 799.833,218.167 798.5,217.5 Z"/></g>
<g><path style="opacity:0.004" fill="#fefffe" d="M 804.5,219.5 C 806.337,219.639 806.67,220.306 805.5,221.5C 804.702,221.043 804.369,220.376 804.5,219.5 Z"/></g>
<g><path style="opacity:0.004" fill="#fefffe" d="M 192.5,220.5 C 193.525,220.897 193.692,221.563 193,222.5C 192.536,221.906 192.369,221.239 192.5,220.5 Z"/></g>
<g><path style="opacity:0.004" fill="#fefffe" d="M 801.5,220.5 C 802.525,220.897 802.692,221.563 802,222.5C 801.536,221.906 801.369,221.239 801.5,220.5 Z"/></g>
<g><path style="opacity:0.004" fill="#fefffe" d="M 898.5,220.5 C 899.525,220.897 899.692,221.563 899,222.5C 898.536,221.906 898.369,221.239 898.5,220.5 Z"/></g>
<g><path style="opacity:0.004" fill="#fefffe" d="M 189.5,223.5 C 190.833,224.167 190.833,224.167 189.5,223.5 Z"/></g>
<g><path style="opacity:0.004" fill="#fefffe" d="M 804.5,223.5 C 805.525,223.897 805.692,224.563 805,225.5C 804.536,224.906 804.369,224.239 804.5,223.5 Z"/></g>
<g><path style="opacity:0.004" fill="#fefffe" d="M 89.5,226.5 C 90.525,226.897 90.6917,227.563 90,228.5C 89.5357,227.906 89.369,227.239 89.5,226.5 Z"/></g>
<g><path style="opacity:0.004" fill="#fefffe" d="M 807.5,226.5 C 808.833,227.167 808.833,227.167 807.5,226.5 Z"/></g>
<g><path style="opacity:0.004" fill="#fefffe" d="M 182.5,229.5 C 183.833,230.167 183.833,230.167 182.5,229.5 Z"/></g>
<g><path style="opacity:0.004" fill="#fefffe" d="M 904.5,229.5 C 905.833,230.167 905.833,230.167 904.5,229.5 Z"/></g>
<g><path style="opacity:0.004" fill="#fefffe" d="M 179.5,231.5 C 180.525,231.897 180.692,232.563 180,233.5C 179.536,232.906 179.369,232.239 179.5,231.5 Z"/></g>
<g><path style="opacity:0.004" fill="#fefffe" d="M 297.5,231.5 C 298.525,231.897 298.692,232.563 298,233.5C 297.536,232.906 297.369,232.239 297.5,231.5 Z"/></g>
<g><path style="opacity:0.004" fill="#fefffe" d="M 814.5,232.5 C 815.833,233.167 815.833,233.167 814.5,232.5 Z"/></g>
<g><path style="opacity:0.004" fill="#fefffe" d="M 817.5,234.5 C 818.525,234.897 818.692,235.563 818,236.5C 817.536,235.906 817.369,235.239 817.5,234.5 Z"/></g>
<g><path style="opacity:0.004" fill="#fefffe" d="M 180.5,235.5 C 181.525,235.897 181.692,236.563 181,237.5C 180.536,236.906 180.369,236.239 180.5,235.5 Z"/></g>
<g><path style="opacity:0.004" fill="#fefffe" d="M 813.5,235.5 C 814.525,235.897 814.692,236.563 814,237.5C 813.536,236.906 813.369,236.239 813.5,235.5 Z"/></g>
<g><path style="opacity:0.931" fill="#fefffe" d="M 487.5,237.5 C 497.522,237.168 507.522,237.501 517.5,238.5C 517.709,239.086 518.043,239.586 518.5,240C 521.482,240.498 524.482,240.665 527.5,240.5C 527.5,241.5 527.5,242.5 527.5,243.5C 529.857,243.337 532.19,243.503 534.5,244C 533.167,244.667 533.167,245.333 534.5,246C 536.134,246.494 537.801,246.66 539.5,246.5C 539.5,247.5 539.5,248.5 539.5,249.5C 541.288,249.215 542.955,249.548 544.5,250.5C 546.304,252.98 548.637,254.647 551.5,255.5C 551.351,256.552 551.517,257.552 552,258.5C 559.422,264.379 564.589,271.712 567.5,280.5C 568.5,280.5 569.5,280.5 570.5,280.5C 570.337,282.857 570.503,285.19 571,287.5C 571.414,287.957 571.914,288.291 572.5,288.5C 573.324,291.785 573.824,295.118 574,298.5C 574.414,298.957 574.914,299.291 575.5,299.5C 575.833,304.167 576.167,308.833 576.5,313.5C 576.249,322.484 575.249,331.15 573.5,339.5C 572.5,339.5 571.5,339.5 570.5,339.5C 570.662,341.527 570.495,343.527 570,345.5C 565.974,350.384 562.474,355.718 559.5,361.5C 554.281,366.264 549.281,371.264 544.5,376.5C 542.929,377.309 541.262,377.643 539.5,377.5C 539.5,378.5 539.5,379.5 539.5,380.5C 538.167,380.5 536.833,380.5 535.5,380.5C 535.5,381.5 535.5,382.5 535.5,383.5C 533.143,383.337 530.81,383.503 528.5,384C 527.167,384.667 527.167,385.333 528.5,386C 525.167,386.333 521.833,386.667 518.5,387C 518.043,387.414 517.709,387.914 517.5,388.5C 507.188,389.499 496.855,389.832 486.5,389.5C 486.5,388.5 486.5,387.5 486.5,386.5C 480.818,386.38 475.484,385.38 470.5,383.5C 470.5,382.5 470.5,381.5 470.5,380.5C 468.5,380.5 466.5,380.5 464.5,380.5C 464.824,377.306 463.658,376.306 461,377.5C 460.517,376.552 460.351,375.552 460.5,374.5C 459.07,374.579 457.736,374.246 456.5,373.5C 453.141,369.729 449.641,366.062 446,362.5C 445.517,361.552 445.351,360.552 445.5,359.5C 444.5,359.5 443.5,359.5 442.5,359.5C 442.5,358.167 442.5,356.833 442.5,355.5C 441.5,355.5 440.5,355.5 439.5,355.5C 439.66,353.801 439.494,352.134 439,350.5C 438.333,349.167 437.667,349.167 437,350.5C 436.667,348.5 436.333,346.5 436,344.5C 434.204,341.603 432.704,338.603 431.5,335.5C 430.671,330.198 430.171,324.864 430,319.5C 428.347,317.768 427.514,315.601 427.5,313C 427.667,311.167 427.833,309.333 428,307.5C 428.667,308.833 429.333,308.833 430,307.5C 430.289,298.827 431.456,290.494 433.5,282.5C 434.5,282.5 435.5,282.5 436.5,282.5C 436.5,280.5 436.5,278.5 436.5,276.5C 437.5,276.5 438.5,276.5 439.5,276.5C 439.5,274.833 439.5,273.167 439.5,271.5C 440.5,271.5 441.5,271.5 442.5,271.5C 443.083,268.511 444.416,265.845 446.5,263.5C 450.353,260.481 453.687,256.981 456.5,253C 457.793,252.51 459.127,252.343 460.5,252.5C 460.5,251.5 460.5,250.5 460.5,249.5C 461.833,249.5 463.167,249.5 464.5,249.5C 464.5,248.5 464.5,247.5 464.5,246.5C 466.5,246.5 468.5,246.5 470.5,246.5C 470.5,245.5 470.5,244.5 470.5,243.5C 475.514,241.775 480.847,240.608 486.5,240C 487.252,239.329 487.586,238.496 487.5,237.5 Z"/></g>
<g><path style="opacity:0.004" fill="#fefffe" d="M 177.5,238.5 C 178.525,238.897 178.692,239.563 178,240.5C 177.536,239.906 177.369,239.239 177.5,238.5 Z"/></g>
<g><path style="opacity:0.004" fill="#fefffe" d="M 702.5,238.5 C 703.833,239.167 703.833,239.167 702.5,238.5 Z"/></g>
<g><path style="opacity:0.004" fill="#fefffe" d="M 816.5,239.5 C 817.833,240.167 817.833,240.167 816.5,239.5 Z"/></g>
<g><path style="opacity:0.004" fill="#fefffe" d="M 80.5,241.5 C 81.525,241.897 81.6917,242.563 81,243.5C 80.5357,242.906 80.369,242.239 80.5,241.5 Z"/></g>
<g><path style="opacity:0.004" fill="#fefffe" d="M 285.5,241.5 C 286.833,242.167 286.833,242.167 285.5,241.5 Z"/></g>
<g><path style="opacity:0.004" fill="#fefffe" d="M 170.5,244.5 C 171.833,245.167 171.833,245.167 170.5,244.5 Z"/></g>
<g><path style="opacity:0.004" fill="#fefffe" d="M 282.5,244.5 C 283.833,245.167 283.833,245.167 282.5,244.5 Z"/></g>
<g><path style="opacity:0.004" fill="#fefffe" d="M 166.5,247.5 C 167.833,248.167 167.833,248.167 166.5,247.5 Z"/></g>
<g><path style="opacity:0.004" fill="#fefffe" d="M 170.5,247.5 C 171.525,247.897 171.692,248.563 171,249.5C 170.536,248.906 170.369,248.239 170.5,247.5 Z"/></g>
<g><path style="opacity:0.004" fill="#fefffe" d="M 822.5,247.5 C 823.525,247.897 823.692,248.563 823,249.5C 822.536,248.906 822.369,248.239 822.5,247.5 Z"/></g>
<g><path style="opacity:0.004" fill="#fefffe" d="M 826.5,247.5 C 827.833,248.167 827.833,248.167 826.5,247.5 Z"/></g>
<g><path style="opacity:0.004" fill="#fefffe" d="M 717.5,250.5 C 718.833,251.167 718.833,251.167 717.5,250.5 Z"/></g>
<g><path style="opacity:0.004" fill="#fefffe" d="M 916.5,250.5 C 917.525,250.897 917.692,251.563 917,252.5C 916.536,251.906 916.369,251.239 916.5,250.5 Z"/></g>
<g><path style="opacity:0.004" fill="#fefffe" d="M 167.5,252.5 C 167.897,251.475 168.563,251.308 169.5,252C 168.906,252.464 168.239,252.631 167.5,252.5 Z"/></g>
<g><path style="opacity:0.004" fill="#fefffe" d="M 720.5,253.5 C 721.833,254.167 721.833,254.167 720.5,253.5 Z"/></g>
<g><path style="opacity:0.004" fill="#fefffe" d="M 552.5,254.5 C 553.833,255.167 553.833,255.167 552.5,254.5 Z"/></g>
<g><path style="opacity:0.004" fill="#fefffe" d="M 160.5,257.5 C 160.897,256.475 161.563,256.308 162.5,257C 161.906,257.464 161.239,257.631 160.5,257.5 Z"/></g>
<g><path style="opacity:0.004" fill="#fefffe" d="M 723.5,256.5 C 724.833,257.167 724.833,257.167 723.5,256.5 Z"/></g>
<g><path style="opacity:0.004" fill="#fefffe" d="M 832.5,256.5 C 833.833,257.167 833.833,257.167 832.5,256.5 Z"/></g>
<g><path style="opacity:0.004" fill="#fefffe" d="M 446.5,258.5 C 446.897,257.475 447.563,257.308 448.5,258C 447.906,258.464 447.239,258.631 446.5,258.5 Z"/></g>
<g><path style="opacity:0.004" fill="#fefffe" d="M 555.5,257.5 C 556.833,258.167 556.833,258.167 555.5,257.5 Z"/></g>
<g><path style="opacity:0.004" fill="#fefffe" d="M 829.5,257.5 C 830.833,258.167 830.833,258.167 829.5,257.5 Z"/></g>
<g><path style="opacity:0.004" fill="#fefffe" d="M 264.5,259.5 C 265.833,260.167 265.833,260.167 264.5,259.5 Z"/></g>
<g><path style="opacity:0.004" fill="#fefffe" d="M 558.5,259.5 C 559.289,259.783 559.956,260.283 560.5,261C 559.184,261.528 558.517,261.028 558.5,259.5 Z"/></g>
<g><path style="opacity:0.004" fill="#fefffe" d="M 726.5,259.5 C 727.833,260.167 727.833,260.167 726.5,259.5 Z"/></g>
<g><path style="opacity:0.004" fill="#fefffe" d="M 161.5,261.5 C 161.897,260.475 162.563,260.308 163.5,261C 162.906,261.464 162.239,261.631 161.5,261.5 Z"/></g>
<g><path style="opacity:0.004" fill="#fefffe" d="M 831.5,260.5 C 832.833,261.167 832.833,261.167 831.5,260.5 Z"/></g>
<g><path style="opacity:0.004" fill="#fefffe" d="M 261.5,262.5 C 262.833,263.167 262.833,263.167 261.5,262.5 Z"/></g>
<g><path style="opacity:0.004" fill="#fefffe" d="M 561.5,262.5 C 562.525,262.897 562.692,263.563 562,264.5C 561.536,263.906 561.369,263.239 561.5,262.5 Z"/></g>
<g><path style="opacity:0.004" fill="#fefffe" d="M 729.5,262.5 C 730.833,263.167 730.833,263.167 729.5,262.5 Z"/></g>
<g><path style="opacity:0.004" fill="#fefffe" d="M 154.5,266.5 C 154.897,265.475 155.563,265.308 156.5,266C 155.906,266.464 155.239,266.631 154.5,266.5 Z"/></g>
<g><path style="opacity:0.004" fill="#fefffe" d="M 258.5,265.5 C 259.833,266.167 259.833,266.167 258.5,265.5 Z"/></g>
<g><path style="opacity:0.004" fill="#fefffe" d="M 732.5,265.5 C 733.833,266.167 733.833,266.167 732.5,265.5 Z"/></g>
<g><path style="opacity:0.004" fill="#fefffe" d="M 838.5,265.5 C 839.833,266.167 839.833,266.167 838.5,265.5 Z"/></g>
<g><path style="opacity:0.004" fill="#fefffe" d="M 255.5,268.5 C 256.833,269.167 256.833,269.167 255.5,268.5 Z"/></g>
<g><path style="opacity:0.004" fill="#fefffe" d="M 735.5,268.5 C 736.833,269.167 736.833,269.167 735.5,268.5 Z"/></g>
<g><path style="opacity:0.004" fill="#fefffe" d="M 64.5,270.5 C 64.8966,269.475 65.5632,269.308 66.5,270C 65.9056,270.464 65.2389,270.631 64.5,270.5 Z"/></g>
<g><path style="opacity:0.004" fill="#fefffe" d="M 155.5,270.5 C 155.897,269.475 156.563,269.308 157.5,270C 156.906,270.464 156.239,270.631 155.5,270.5 Z"/></g>
<g><path style="opacity:0.004" fill="#fefffe" d="M 437.5,270.5 C 437.897,269.475 438.563,269.308 439.5,270C 438.906,270.464 438.239,270.631 437.5,270.5 Z"/></g>
<g><path style="opacity:0.004" fill="#fefffe" d="M 738.5,271.5 C 739.833,272.167 739.833,272.167 738.5,271.5 Z"/></g>
<g><path style="opacity:0.004" fill="#fefffe" d="M 567.5,272.5 C 568.833,273.167 568.833,273.167 567.5,272.5 Z"/></g>
<g><path style="opacity:0.004" fill="#fefffe" d="M 148.5,275.5 C 148.897,274.475 149.563,274.308 150.5,275C 149.906,275.464 149.239,275.631 148.5,275.5 Z"/></g>
<g><path style="opacity:0.004" fill="#fefffe" d="M 741.5,274.5 C 742.833,275.167 742.833,275.167 741.5,274.5 Z"/></g>
<g><path style="opacity:0.004" fill="#fefffe" d="M 844.5,274.5 C 845.833,275.167 845.833,275.167 844.5,274.5 Z"/></g>
<g><path style="opacity:0.004" fill="#fefffe" d="M 61.5,276.5 C 61.8966,275.475 62.5632,275.308 63.5,276C 62.9056,276.464 62.2389,276.631 61.5,276.5 Z"/></g>
<g><path style="opacity:0.004" fill="#fefffe" d="M 840.5,276.5 C 840.897,275.475 841.563,275.308 842.5,276C 841.906,276.464 841.239,276.631 840.5,276.5 Z"/></g>
<g><path style="opacity:0.004" fill="#fefffe" d="M 744.5,277.5 C 745.833,278.167 745.833,278.167 744.5,277.5 Z"/></g>
<g><path style="opacity:0.004" fill="#fefffe" d="M 149.5,279.5 C 149.897,278.475 150.563,278.308 151.5,279C 150.906,279.464 150.239,279.631 149.5,279.5 Z"/></g>
<g><path style="opacity:0.004" fill="#fefffe" d="M 747.5,280.5 C 748.833,281.167 748.833,281.167 747.5,280.5 Z"/></g>
<g><path style="opacity:0.004" fill="#fefffe" d="M 750.5,283.5 C 751.833,284.167 751.833,284.167 750.5,283.5 Z"/></g>
<g><path style="opacity:0.004" fill="#fefffe" d="M 239.5,287.5 C 239.897,286.475 240.563,286.308 241.5,287C 240.906,287.464 240.239,287.631 239.5,287.5 Z"/></g>
<g><path style="opacity:0.004" fill="#fefffe" d="M 753.5,286.5 C 754.833,287.167 754.833,287.167 753.5,286.5 Z"/></g>
<g><path style="opacity:0.004" fill="#fefffe" d="M 140.5,289.5 C 141.833,290.167 141.833,290.167 140.5,289.5 Z"/></g>
<g><path style="opacity:0.004" fill="#fefffe" d="M 236.5,290.5 C 236.897,289.475 237.563,289.308 238.5,290C 237.906,290.464 237.239,290.631 236.5,290.5 Z"/></g>
<g><path style="opacity:0.004" fill="#fefffe" d="M 849.5,290.5 C 850.833,291.167 850.833,291.167 849.5,290.5 Z"/></g>
<g><path style="opacity:0.004" fill="#fefffe" d="M 136.5,295.5 C 137.833,296.167 137.833,296.167 136.5,295.5 Z"/></g>
<g><path style="opacity:0.004" fill="#fefffe" d="M 856.5,295.5 C 857.833,296.167 857.833,296.167 856.5,295.5 Z"/></g>
<g><path style="opacity:0.004" fill="#fefffe" d="M 762.5,298.5 C 763.525,298.897 763.692,299.563 763,300.5C 762.536,299.906 762.369,299.239 762.5,298.5 Z"/></g>
<g><path style="opacity:0.004" fill="#fefffe" d="M 137.5,299.5 C 138.833,300.167 138.833,300.167 137.5,299.5 Z"/></g>
<g><path style="opacity:0.004" fill="#fefffe" d="M 227.5,302.5 C 227.897,301.475 228.563,301.308 229.5,302C 228.906,302.464 228.239,302.631 227.5,302.5 Z"/></g>
<g><path style="opacity:0.004" fill="#fefffe" d="M 856.5,302.5 C 857.833,303.167 857.833,303.167 856.5,302.5 Z"/></g>
<g><path style="opacity:0.004" fill="#fefffe" d="M 771.5,310.5 C 772.525,310.897 772.692,311.563 772,312.5C 771.536,311.906 771.369,311.239 771.5,310.5 Z"/></g>
<g><path style="opacity:0.004" fill="#fefffe" d="M 219.5,313.5 C 220.525,313.897 220.692,314.563 220,315.5C 219.536,314.906 219.369,314.239 219.5,313.5 Z"/></g>
<g><path style="opacity:0.004" fill="#fefffe" d="M 777.5,319.5 C 779.337,319.639 779.67,320.306 778.5,321.5C 777.702,321.043 777.369,320.376 777.5,319.5 Z"/></g>
<g><path style="opacity:0.004" fill="#fefffe" d="M 865.5,320.5 C 866.833,321.167 866.833,321.167 865.5,320.5 Z"/></g>
<g><path style="opacity:0.004" fill="#fefffe" d="M 213.5,323.5 C 214.833,324.167 214.833,324.167 213.5,323.5 Z"/></g>
<g><path style="opacity:0.004" fill="#fefffe" d="M 209.5,329.5 C 210.833,330.167 210.833,330.167 209.5,329.5 Z"/></g>
<g><path style="opacity:0.004" fill="#fefffe" d="M 786.5,336.5 C 786.897,335.475 787.563,335.308 788.5,336C 787.906,336.464 787.239,336.631 786.5,336.5 Z"/></g>
<g><path style="opacity:0.004" fill="#fefffe" d="M 112.5,347.5 C 113.833,348.167 113.833,348.167 112.5,347.5 Z"/></g>
<g><path style="opacity:0.004" fill="#fefffe" d="M 567.5,353.5 C 568.833,354.167 568.833,354.167 567.5,353.5 Z"/></g>
<g><path style="opacity:0.004" fill="#fefffe" d="M 437.5,357.5 C 437.897,356.475 438.563,356.308 439.5,357C 438.906,357.464 438.239,357.631 437.5,357.5 Z"/></g>
<g><path style="opacity:0.004" fill="#fefffe" d="M 561.5,362.5 C 562.833,363.167 562.833,363.167 561.5,362.5 Z"/></g>
<g><path style="opacity:0.004" fill="#fefffe" d="M 558.5,366.5 C 558.897,365.475 559.563,365.308 560.5,366C 559.906,366.464 559.239,366.631 558.5,366.5 Z"/></g>
<g><path style="opacity:0.004" fill="#fefffe" d="M 446.5,369.5 C 446.897,368.475 447.563,368.308 448.5,369C 447.906,369.464 447.239,369.631 446.5,369.5 Z"/></g>
<g><path style="opacity:0.004" fill="#fefffe" d="M 555.5,368.5 C 556.833,369.167 556.833,369.167 555.5,368.5 Z"/></g>
<g><path style="opacity:0.004" fill="#fefffe" d="M 450.5,371.5 C 451.833,372.167 451.833,372.167 450.5,371.5 Z"/></g>
<g><path style="opacity:0.004" fill="#fefffe" d="M 552.5,371.5 C 553.833,372.167 553.833,372.167 552.5,371.5 Z"/></g>
<g><path style="opacity:0.004" fill="#fefffe" d="M 453.5,374.5 C 454.833,375.167 454.833,375.167 453.5,374.5 Z"/></g>
<g><path style="opacity:0.004" fill="#fefffe" d="M 546.5,377.5 C 547.833,378.167 547.833,378.167 546.5,377.5 Z"/></g>
<g><path style="opacity:0.004" fill="#fefffe" d="M 462.5,380.5 C 463.833,381.167 463.833,381.167 462.5,380.5 Z"/></g>
<g><path style="opacity:0.931" fill="#fefffe" d="M 245.5,413.5 C 311.834,413.333 378.168,413.5 444.5,414C 443.366,415.016 443.699,415.683 445.5,416C 451.502,416.499 457.169,417.666 462.5,419.5C 462.5,420.5 462.5,421.5 462.5,422.5C 463.833,422.5 465.167,422.5 466.5,422.5C 466.5,423.5 466.5,424.5 466.5,425.5C 467.833,425.5 469.167,425.5 470.5,425.5C 470.5,426.5 470.5,427.5 470.5,428.5C 471.552,428.351 472.552,428.517 473.5,429C 473.167,429.333 472.833,429.667 472.5,430C 474.5,432.378 476.667,434.545 479,436.5C 479.494,438.134 479.66,439.801 479.5,441.5C 480.5,441.5 481.5,441.5 482.5,441.5C 481.955,444.998 482.788,447.998 485,450.5C 485.667,566.167 485.667,681.833 485,797.5C 458.908,798.495 432.741,798.828 406.5,798.5C 406.168,697.93 406.501,597.43 407.5,497C 353.643,495.505 299.643,495.005 245.5,495.5C 245.5,468.167 245.5,440.833 245.5,413.5 Z"/></g>
<g><path style="opacity:0.004" fill="#fefffe" d="M 479.5,432.5 C 480.525,432.897 480.692,433.563 480,434.5C 479.536,433.906 479.369,433.239 479.5,432.5 Z"/></g>
<g><path style="opacity:0.004" fill="#fefffe" d="M 901.5,495.5 C 902.525,495.897 902.692,496.563 902,497.5C 901.536,496.906 901.369,496.239 901.5,495.5 Z"/></g>
<g><path style="opacity:0.004" fill="#fefffe" d="M 686.5,608.5 C 687.833,609.167 687.833,609.167 686.5,608.5 Z"/></g>
<g><path style="opacity:0.004" fill="#fefffe" d="M 689.5,612.5 C 689.897,611.475 690.563,611.308 691.5,612C 690.906,612.464 690.239,612.631 689.5,612.5 Z"/></g>
<g><path style="opacity:0.004" fill="#fefffe" d="M 692.5,615.5 C 692.897,614.475 693.563,614.308 694.5,615C 693.906,615.464 693.239,615.631 692.5,615.5 Z"/></g>
<g><path style="opacity:0.004" fill="#fefffe" d="M 695.5,618.5 C 695.897,617.475 696.563,617.308 697.5,618C 696.906,618.464 696.239,618.631 695.5,618.5 Z"/></g>
<g><path style="opacity:0.004" fill="#fefffe" d="M 698.5,621.5 C 698.897,620.475 699.563,620.308 700.5,621C 699.906,621.464 699.239,621.631 698.5,621.5 Z"/></g>
<g><path style="opacity:0.004" fill="#fefffe" d="M 701.5,624.5 C 701.897,623.475 702.563,623.308 703.5,624C 702.906,624.464 702.239,624.631 701.5,624.5 Z"/></g>
<g><path style="opacity:0.004" fill="#fefffe" d="M 704.5,627.5 C 704.897,626.475 705.563,626.308 706.5,627C 705.906,627.464 705.239,627.631 704.5,627.5 Z"/></g>
<g><path style="opacity:0.004" fill="#fefffe" d="M 707.5,630.5 C 707.897,629.475 708.563,629.308 709.5,630C 708.906,630.464 708.239,630.631 707.5,630.5 Z"/></g>
<g><path style="opacity:0.004" fill="#fefffe" d="M 710.5,633.5 C 710.897,632.475 711.563,632.308 712.5,633C 711.906,633.464 711.239,633.631 710.5,633.5 Z"/></g>
<g><path style="opacity:0.004" fill="#fefffe" d="M 713.5,636.5 C 713.897,635.475 714.563,635.308 715.5,636C 714.906,636.464 714.239,636.631 713.5,636.5 Z"/></g>
<g><path style="opacity:0.004" fill="#fefffe" d="M 191.5,636.5 C 192.833,637.167 192.833,637.167 191.5,636.5 Z"/></g>
<g><path style="opacity:0.004" fill="#fefffe" d="M 716.5,639.5 C 717.077,638.227 717.743,638.227 718.5,639.5C 718.03,640.463 717.363,640.463 716.5,639.5 Z"/></g>
<g><path style="opacity:0.004" fill="#fefffe" d="M 720.5,641.5 C 721.833,642.167 721.833,642.167 720.5,641.5 Z"/></g>
<g><path style="opacity:0.004" fill="#fefffe" d="M 723.5,644.5 C 724.833,645.167 724.833,645.167 723.5,644.5 Z"/></g>
<g><path style="opacity:0.004" fill="#fefffe" d="M 726.5,647.5 C 727.833,648.167 727.833,648.167 726.5,647.5 Z"/></g>
<g><path style="opacity:0.004" fill="#fefffe" d="M 729.5,650.5 C 730.833,651.167 730.833,651.167 729.5,650.5 Z"/></g>
<g><path style="opacity:0.004" fill="#fefffe" d="M 116.5,653.5 C 117.833,654.167 117.833,654.167 116.5,653.5 Z"/></g>
<g><path style="opacity:0.004" fill="#fefffe" d="M 732.5,653.5 C 733.833,654.167 733.833,654.167 732.5,653.5 Z"/></g>
<g><path style="opacity:0.004" fill="#fefffe" d="M 735.5,656.5 C 736.833,657.167 736.833,657.167 735.5,656.5 Z"/></g>
<g><path style="opacity:0.004" fill="#fefffe" d="M 738.5,659.5 C 739.833,660.167 739.833,660.167 738.5,659.5 Z"/></g>
<g><path style="opacity:0.004" fill="#fefffe" d="M 741.5,662.5 C 742.833,663.167 742.833,663.167 741.5,662.5 Z"/></g>
<g><path style="opacity:0.004" fill="#fefffe" d="M 744.5,665.5 C 745.833,666.167 745.833,666.167 744.5,665.5 Z"/></g>
<g><path style="opacity:0.004" fill="#fefffe" d="M 206.5,666.5 C 207.833,667.167 207.833,667.167 206.5,666.5 Z"/></g>
<g><path style="opacity:0.004" fill="#fefffe" d="M 210.5,672.5 C 211.833,673.167 211.833,673.167 210.5,672.5 Z"/></g>
<g><path style="opacity:0.004" fill="#fefffe" d="M 215.5,681.5 C 216.525,681.897 216.692,682.563 216,683.5C 215.536,682.906 215.369,682.239 215.5,681.5 Z"/></g>
<g><path style="opacity:0.004" fill="#fefffe" d="M 221.5,690.5 C 222.525,690.897 222.692,691.563 222,692.5C 221.536,691.906 221.369,691.239 221.5,690.5 Z"/></g>
<g><path style="opacity:0.004" fill="#fefffe" d="M 765.5,696.5 C 766.289,696.783 766.956,697.283 767.5,698C 766.184,698.528 765.517,698.028 765.5,696.5 Z"/></g>
<g><path style="opacity:0.004" fill="#fefffe" d="M 227.5,699.5 C 228.289,699.783 228.956,700.283 229.5,701C 228.184,701.528 227.517,701.028 227.5,699.5 Z"/></g>
<g><path style="opacity:0.004" fill="#fefffe" d="M 762.5,699.5 C 763.525,699.897 763.692,700.563 763,701.5C 762.536,700.906 762.369,700.239 762.5,699.5 Z"/></g>
<g><path style="opacity:0.004" fill="#fefffe" d="M 144.5,711.5 C 145.833,712.167 145.833,712.167 144.5,711.5 Z"/></g>
<g><path style="opacity:0.004" fill="#fefffe" d="M 236.5,711.5 C 238.337,711.639 238.67,712.306 237.5,713.5C 236.702,713.043 236.369,712.376 236.5,711.5 Z"/></g>
<g><path style="opacity:0.004" fill="#fefffe" d="M 239.5,716.5 C 239.897,715.475 240.563,715.308 241.5,716C 240.906,716.464 240.239,716.631 239.5,716.5 Z"/></g>
<g><path style="opacity:0.004" fill="#fefffe" d="M 750.5,715.5 C 751.833,716.167 751.833,716.167 750.5,715.5 Z"/></g>
<g><path style="opacity:0.004" fill="#fefffe" d="M 146.5,718.5 C 146.897,717.475 147.563,717.308 148.5,718C 147.906,718.464 147.239,718.631 146.5,718.5 Z"/></g>
<g><path style="opacity:0.004" fill="#fefffe" d="M 747.5,718.5 C 748.833,719.167 748.833,719.167 747.5,718.5 Z"/></g>
<g><path style="opacity:0.004" fill="#fefffe" d="M 145.5,722.5 C 145.897,721.475 146.563,721.308 147.5,722C 146.906,722.464 146.239,722.631 145.5,722.5 Z"/></g>
<g><path style="opacity:0.004" fill="#fefffe" d="M 744.5,721.5 C 745.833,722.167 745.833,722.167 744.5,721.5 Z"/></g>
<g><path style="opacity:0.004" fill="#fefffe" d="M 741.5,724.5 C 742.833,725.167 742.833,725.167 741.5,724.5 Z"/></g>
<g><path style="opacity:0.004" fill="#fefffe" d="M 738.5,727.5 C 739.833,728.167 739.833,728.167 738.5,727.5 Z"/></g>
<g><path style="opacity:0.004" fill="#fefffe" d="M 735.5,730.5 C 736.833,731.167 736.833,731.167 735.5,730.5 Z"/></g>
<g><path style="opacity:0.004" fill="#fefffe" d="M 155.5,733.5 C 155.897,732.475 156.563,732.308 157.5,733C 156.906,733.464 156.239,733.631 155.5,733.5 Z"/></g>
<g><path style="opacity:0.004" fill="#fefffe" d="M 255.5,733.5 C 256.833,734.167 256.833,734.167 255.5,733.5 Z"/></g>
<g><path style="opacity:0.004" fill="#fefffe" d="M 732.5,733.5 C 733.833,734.167 733.833,734.167 732.5,733.5 Z"/></g>
<g><path style="opacity:0.004" fill="#fefffe" d="M 154.5,737.5 C 154.897,736.475 155.563,736.308 156.5,737C 155.906,737.464 155.239,737.631 154.5,737.5 Z"/></g>
<g><path style="opacity:0.004" fill="#fefffe" d="M 258.5,736.5 C 259.833,737.167 259.833,737.167 258.5,736.5 Z"/></g>
<g><path style="opacity:0.004" fill="#fefffe" d="M 261.5,739.5 C 262.833,740.167 262.833,740.167 261.5,739.5 Z"/></g>
<g><path style="opacity:0.004" fill="#fefffe" d="M 725.5,740.5 C 725.897,739.475 726.563,739.308 727.5,740C 726.906,740.464 726.239,740.631 725.5,740.5 Z"/></g>
<g><path style="opacity:0.004" fill="#fefffe" d="M 161.5,742.5 C 161.897,741.475 162.563,741.308 163.5,742C 162.906,742.464 162.239,742.631 161.5,742.5 Z"/></g>
<g><path style="opacity:0.004" fill="#fefffe" d="M 264.5,742.5 C 265.833,743.167 265.833,743.167 264.5,742.5 Z"/></g>
<g><path style="opacity:0.004" fill="#fefffe" d="M 722.5,743.5 C 722.897,742.475 723.563,742.308 724.5,743C 723.906,743.464 723.239,743.631 722.5,743.5 Z"/></g>
<g><path style="opacity:0.004" fill="#fefffe" d="M 160.5,746.5 C 160.897,745.475 161.563,745.308 162.5,746C 161.906,746.464 161.239,746.631 160.5,746.5 Z"/></g>
<g><path style="opacity:0.004" fill="#fefffe" d="M 267.5,745.5 C 268.833,746.167 268.833,746.167 267.5,745.5 Z"/></g>
<g><path style="opacity:0.004" fill="#fefffe" d="M 719.5,746.5 C 719.897,745.475 720.563,745.308 721.5,746C 720.906,746.464 720.239,746.631 719.5,746.5 Z"/></g>
<g><path style="opacity:0.004" fill="#fefffe" d="M 168.5,750.5 C 169.833,751.167 169.833,751.167 168.5,750.5 Z"/></g>
<g><path style="opacity:0.004" fill="#fefffe" d="M 826.5,750.5 C 827.525,750.897 827.692,751.563 827,752.5C 826.536,751.906 826.369,751.239 826.5,750.5 Z"/></g>
<g><path style="opacity:0.004" fill="#fefffe" d="M 170.5,754.5 C 171.077,753.227 171.743,753.227 172.5,754.5C 172.03,755.463 171.363,755.463 170.5,754.5 Z"/></g>
<g><path style="opacity:0.004" fill="#fefffe" d="M 819.5,756.5 C 820.525,756.897 820.692,757.563 820,758.5C 819.536,757.906 819.369,757.239 819.5,756.5 Z"/></g>
<g><path style="opacity:0.004" fill="#fefffe" d="M 170.5,757.5 C 171.833,758.167 171.833,758.167 170.5,757.5 Z"/></g>
<g><path style="opacity:0.004" fill="#fefffe" d="M 822.5,758.5 C 823.077,757.227 823.743,757.227 824.5,758.5C 824.03,759.463 823.363,759.463 822.5,758.5 Z"/></g>
<g><path style="opacity:0.004" fill="#fefffe" d="M 285.5,760.5 C 286.833,761.167 286.833,761.167 285.5,760.5 Z"/></g>
<g><path style="opacity:0.004" fill="#fefffe" d="M 820.5,760.5 C 821.525,760.897 821.692,761.563 821,762.5C 820.536,761.906 820.369,761.239 820.5,760.5 Z"/></g>
<g><path style="opacity:0.004" fill="#fefffe" d="M 80.5,762.5 C 81.525,762.897 81.6917,763.563 81,764.5C 80.5357,763.906 80.369,763.239 80.5,762.5 Z"/></g>
<g><path style="opacity:0.004" fill="#fefffe" d="M 177.5,762.5 C 178.833,763.167 178.833,763.167 177.5,762.5 Z"/></g>
<g><path style="opacity:0.004" fill="#fefffe" d="M 817.5,763.5 C 818.833,764.167 818.833,764.167 817.5,763.5 Z"/></g>
<g><path style="opacity:0.004" fill="#fefffe" d="M 180.5,765.5 C 181.525,765.897 181.692,766.563 181,767.5C 180.536,766.906 180.369,766.239 180.5,765.5 Z"/></g>
<g><path style="opacity:0.004" fill="#fefffe" d="M 176.5,766.5 C 177.525,766.897 177.692,767.563 177,768.5C 176.536,767.906 176.369,767.239 176.5,766.5 Z"/></g>
<g><path style="opacity:0.004" fill="#fefffe" d="M 810.5,768.5 C 811.525,768.897 811.692,769.563 811,770.5C 810.536,769.906 810.369,769.239 810.5,768.5 Z"/></g>
<g><path style="opacity:0.004" fill="#fefffe" d="M 179.5,769.5 C 180.833,770.167 180.833,770.167 179.5,769.5 Z"/></g>
<g><path style="opacity:0.004" fill="#fefffe" d="M 807.5,771.5 C 808.525,771.897 808.692,772.563 808,773.5C 807.536,772.906 807.369,772.239 807.5,771.5 Z"/></g>
<g><path style="opacity:0.004" fill="#fefffe" d="M 804.5,774.5 C 805.525,774.897 805.692,775.563 805,776.5C 804.536,775.906 804.369,775.239 804.5,774.5 Z"/></g>
<g><path style="opacity:0.004" fill="#fefffe" d="M 808.5,775.5 C 809.525,775.897 809.692,776.563 809,777.5C 808.536,776.906 808.369,776.239 808.5,775.5 Z"/></g>
<g><path style="opacity:0.004" fill="#fefffe" d="M 89.5,777.5 C 90.525,777.897 90.6917,778.563 90,779.5C 89.5357,778.906 89.369,778.239 89.5,777.5 Z"/></g>
<g><path style="opacity:0.004" fill="#fefffe" d="M 805.5,778.5 C 806.773,779.077 806.773,779.743 805.5,780.5C 804.537,780.03 804.537,779.363 805.5,778.5 Z"/></g>
<g><path style="opacity:0.004" fill="#fefffe" d="M 192.5,780.5 C 193.525,780.897 193.692,781.563 193,782.5C 192.536,781.906 192.369,781.239 192.5,780.5 Z"/></g>
<g><path style="opacity:0.004" fill="#fefffe" d="M 188.5,781.5 C 189.525,781.897 189.692,782.563 189,783.5C 188.536,782.906 188.369,782.239 188.5,781.5 Z"/></g>
<g><path style="opacity:0.004" fill="#fefffe" d="M 195.5,783.5 C 196.525,783.897 196.692,784.563 196,785.5C 195.536,784.906 195.369,784.239 195.5,783.5 Z"/></g>
<g><path style="opacity:0.004" fill="#fefffe" d="M 191.5,784.5 C 192.525,784.897 192.692,785.563 192,786.5C 191.536,785.906 191.369,785.239 191.5,784.5 Z"/></g>
<g><path style="opacity:0.004" fill="#fefffe" d="M 94.5,787.5 C 95.8333,788.167 95.8333,788.167 94.5,787.5 Z"/></g>
<g><path style="opacity:0.004" fill="#fefffe" d="M 194.5,787.5 C 195.525,787.897 195.692,788.563 195,789.5C 194.536,788.906 194.369,788.239 194.5,787.5 Z"/></g>
<g><path style="opacity:0.004" fill="#fefffe" d="M 198.5,787.5 C 199.833,788.167 199.833,788.167 198.5,787.5 Z"/></g>
<g><path style="opacity:0.004" fill="#fefffe" d="M 792.5,790.5 C 793.833,791.167 793.833,791.167 792.5,790.5 Z"/></g>
<g><path style="opacity:0.004" fill="#fefffe" d="M 789.5,793.5 C 790.833,794.167 790.833,794.167 789.5,793.5 Z"/></g>
<g><path style="opacity:0.004" fill="#fefffe" d="M 100.5,796.5 C 101.833,797.167 101.833,797.167 100.5,796.5 Z"/></g>
<g><path style="opacity:0.004" fill="#fefffe" d="M 786.5,796.5 C 787.833,797.167 787.833,797.167 786.5,796.5 Z"/></g>
<g><path style="opacity:0.004" fill="#fefffe" d="M 783.5,803.5 C 784.833,804.167 784.833,804.167 783.5,803.5 Z"/></g>
<g><path style="opacity:0.004" fill="#fefffe" d="M 107.5,805.5 C 108.833,806.167 108.833,806.167 107.5,805.5 Z"/></g>
<g><path style="opacity:0.004" fill="#fefffe" d="M 780.5,806.5 C 781.833,807.167 781.833,807.167 780.5,806.5 Z"/></g>
<g><path style="opacity:0.004" fill="#fefffe" d="M 879.5,808.5 C 880.833,809.167 880.833,809.167 879.5,808.5 Z"/></g>
<g><path style="opacity:0.004" fill="#fefffe" d="M 113.5,814.5 C 114.833,815.167 114.833,815.167 113.5,814.5 Z"/></g>
<g><path style="opacity:0.004" fill="#fefffe" d="M 225.5,814.5 C 226.833,815.167 226.833,815.167 225.5,814.5 Z"/></g>
<g><path style="opacity:0.004" fill="#fefffe" d="M 116.5,817.5 C 117.833,818.167 117.833,818.167 116.5,817.5 Z"/></g>
<g><path style="opacity:0.004" fill="#fefffe" d="M 228.5,817.5 C 229.833,818.167 229.833,818.167 228.5,817.5 Z"/></g>
<g><path style="opacity:0.004" fill="#fefffe" d="M 758.5,821.5 C 758.897,820.475 759.563,820.308 760.5,821C 759.906,821.464 759.239,821.631 758.5,821.5 Z"/></g>
<g><path style="opacity:0.004" fill="#fefffe" d="M 870.5,821.5 C 870.897,820.475 871.563,820.308 872.5,821C 871.906,821.464 871.239,821.631 870.5,821.5 Z"/></g>
<g><path style="opacity:0.004" fill="#fefffe" d="M 234.5,824.5 C 234.897,823.475 235.563,823.308 236.5,824C 235.906,824.464 235.239,824.631 234.5,824.5 Z"/></g>
<g><path style="opacity:0.004" fill="#fefffe" d="M 867.5,824.5 C 867.897,823.475 868.563,823.308 869.5,824C 868.906,824.464 868.239,824.631 867.5,824.5 Z"/></g>
<g><path style="opacity:0.004" fill="#fefffe" d="M 759.5,824.5 C 760.833,825.167 760.833,825.167 759.5,824.5 Z"/></g>
<g><path style="opacity:0.004" fill="#fefffe" d="M 752.5,827.5 C 752.897,826.475 753.563,826.308 754.5,827C 753.906,827.464 753.239,827.631 752.5,827.5 Z"/></g>
<g><path style="opacity:0.004" fill="#fefffe" d="M 865.5,826.5 C 866.833,827.167 866.833,827.167 865.5,826.5 Z"/></g>
<g><path style="opacity:0.004" fill="#fefffe" d="M 233.5,828.5 C 233.897,827.475 234.563,827.308 235.5,828C 234.906,828.464 234.239,828.631 233.5,828.5 Z"/></g>
<g><path style="opacity:0.004" fill="#fefffe" d="M 756.5,827.5 C 757.833,828.167 757.833,828.167 756.5,827.5 Z"/></g>
<g><path style="opacity:0.004" fill="#fefffe" d="M 125.5,829.5 C 126.833,830.167 126.833,830.167 125.5,829.5 Z"/></g>
<g><path style="opacity:0.004" fill="#fefffe" d="M 749.5,829.5 C 750.833,830.167 750.833,830.167 749.5,829.5 Z"/></g>
<g><path style="opacity:0.004" fill="#fefffe" d="M 753.5,830.5 C 754.833,831.167 754.833,831.167 753.5,830.5 Z"/></g>
<g><path style="opacity:0.004" fill="#fefffe" d="M 128.5,832.5 C 129.525,832.897 129.692,833.563 129,834.5C 128.536,833.906 128.369,833.239 128.5,832.5 Z"/></g>
<g><path style="opacity:0.004" fill="#fefffe" d="M 750.5,833.5 C 751.833,834.167 751.833,834.167 750.5,833.5 Z"/></g>
<g><path style="opacity:0.004" fill="#fefffe" d="M 131.5,835.5 C 134.001,835.511 134.168,836.178 132,837.5C 131.536,836.906 131.369,836.239 131.5,835.5 Z"/></g>
<g><path style="opacity:0.004" fill="#fefffe" d="M 740.5,835.5 C 741.833,836.167 741.833,836.167 740.5,835.5 Z"/></g>
<g><path style="opacity:0.004" fill="#fefffe" d="M 737.5,838.5 C 738.833,839.167 738.833,839.167 737.5,838.5 Z"/></g>
<g><path style="opacity:0.004" fill="#fefffe" d="M 252.5,842.5 C 253.833,843.167 253.833,843.167 252.5,842.5 Z"/></g>
<g><path style="opacity:0.004" fill="#fefffe" d="M 738.5,842.5 C 739.833,843.167 739.833,843.167 738.5,842.5 Z"/></g>
<g><path style="opacity:0.004" fill="#fefffe" d="M 725.5,847.5 C 726.833,848.167 726.833,848.167 725.5,847.5 Z"/></g>
<g><path style="opacity:0.004" fill="#fefffe" d="M 846.5,847.5 C 849.001,847.511 849.168,848.178 847,849.5C 846.536,848.906 846.369,848.239 846.5,847.5 Z"/></g>
<g><path style="opacity:0.004" fill="#fefffe" d="M 843.5,850.5 C 844.525,850.897 844.692,851.563 844,852.5C 843.536,851.906 843.369,851.239 843.5,850.5 Z"/></g>
<g><path style="opacity:0.004" fill="#fefffe" d="M 716.5,853.5 C 717.525,853.897 717.692,854.563 717,855.5C 716.536,854.906 716.369,854.239 716.5,853.5 Z"/></g>
<g><path style="opacity:0.004" fill="#fefffe" d="M 840.5,853.5 C 841.525,853.897 841.692,854.563 841,855.5C 840.536,854.906 840.369,854.239 840.5,853.5 Z"/></g>
<g><path style="opacity:0.004" fill="#fefffe" d="M 837.5,856.5 C 838.525,856.897 838.692,857.563 838,858.5C 837.536,857.906 837.369,857.239 837.5,856.5 Z"/></g>
<g><path style="opacity:0.004" fill="#fefffe" d="M 834.5,859.5 C 835.525,859.897 835.692,860.563 835,861.5C 834.536,860.906 834.369,860.239 834.5,859.5 Z"/></g>
<g><path style="opacity:0.004" fill="#fefffe" d="M 831.5,862.5 C 832.525,862.897 832.692,863.563 832,864.5C 831.536,863.906 831.369,863.239 831.5,862.5 Z"/></g>
<g><path style="opacity:0.004" fill="#fefffe" d="M 828.5,865.5 C 829.525,865.897 829.692,866.563 829,867.5C 828.536,866.906 828.369,866.239 828.5,865.5 Z"/></g>
<g><path style="opacity:0.004" fill="#fefffe" d="M 825.5,868.5 C 826.525,868.897 826.692,869.563 826,870.5C 825.536,869.906 825.369,869.239 825.5,868.5 Z"/></g>
<g><path style="opacity:0.004" fill="#fefffe" d="M 822.5,872.5 C 823.833,873.167 823.833,873.167 822.5,872.5 Z"/></g>
<g><path style="opacity:0.004" fill="#fefffe" d="M 950.5,872.5 C 951.833,873.167 951.833,873.167 950.5,872.5 Z"/></g>
<g><path style="opacity:0.004" fill="#fefffe" d="M 953.5,875.5 C 954.833,876.167 954.833,876.167 953.5,875.5 Z"/></g>
<g><path style="opacity:0.004" fill="#fefffe" d="M 956.5,878.5 C 957.833,879.167 957.833,879.167 956.5,878.5 Z"/></g>
<g><path style="opacity:0.004" fill="#fefffe" d="M 959.5,881.5 C 960.833,882.167 960.833,882.167 959.5,881.5 Z"/></g>
<g><path style="opacity:0.004" fill="#fefffe" d="M 962.5,884.5 C 963.833,885.167 963.833,885.167 962.5,884.5 Z"/></g>
<g><path style="opacity:0.004" fill="#fefffe" d="M 183.5,887.5 C 184.833,888.167 184.833,888.167 183.5,887.5 Z"/></g>
<g><path style="opacity:0.004" fill="#fefffe" d="M 965.5,887.5 C 966.833,888.167 966.833,888.167 965.5,887.5 Z"/></g>
<g><path style="opacity:0.004" fill="#fefffe" d="M 186.5,890.5 C 187.833,891.167 187.833,891.167 186.5,890.5 Z"/></g>
<g><path style="opacity:0.004" fill="#fefffe" d="M 801.5,890.5 C 802.833,891.167 802.833,891.167 801.5,890.5 Z"/></g>
<g><path style="opacity:0.004" fill="#fefffe" d="M 968.5,890.5 C 969.833,891.167 969.833,891.167 968.5,890.5 Z"/></g>
<g><path style="opacity:0.004" fill="#fefffe" d="M 189.5,893.5 C 190.833,894.167 190.833,894.167 189.5,893.5 Z"/></g>
<g><path style="opacity:0.004" fill="#fefffe" d="M 798.5,893.5 C 799.833,894.167 799.833,894.167 798.5,893.5 Z"/></g>
<g><path style="opacity:0.004" fill="#fefffe" d="M 782.5,906.5 C 782.897,905.475 783.563,905.308 784.5,906C 783.906,906.464 783.239,906.631 782.5,906.5 Z"/></g>
<g><path style="opacity:0.004" fill="#fefffe" d="M 770.5,915.5 C 770.897,914.475 771.563,914.308 772.5,915C 771.906,915.464 771.239,915.631 770.5,915.5 Z"/></g>
</svg>
